<?xml version="1.0" encoding="utf-8"?>
<!-- Generator: Adobe Illustrator 25.4.1, SVG Export Plug-In . SVG Version: 6.00 Build 0)  -->
<svg version="1.1" id="Layer_1" xmlns="http://www.w3.org/2000/svg" xmlns:xlink="http://www.w3.org/1999/xlink" x="0px" y="0px"
	 viewBox="0 0 3309 1201.9" style="enable-background:new 0 0 3309 1201.9;" xml:space="preserve">
<style type="text/css">
	.st0{display:none;fill:#EAF5F5;}
	.st1{fill:#FF7900;}
	.st2{fill:#FFFFFF;}
</style>
<rect x="-239.8" y="-959.1" class="st0" width="3984.9" height="3722.4"/>
<g>
	<g>
		<path class="st1" d="M12.7,90.4c0-9.1,1.6-17.5,4.8-25.3s7.7-14.5,13.4-20.2s12.3-10.1,19.9-13.4c7.6-3.2,15.7-4.8,24.5-4.8h365.4
			v80.8H96.9v73.4h298.2v80.8H96.9v82.5h343.7V425H78.1c-9.1,0-17.6-1.7-25.6-5.1s-14.9-8-20.8-13.7s-10.5-12.3-13.9-19.9
			s-5.1-15.6-5.1-23.9C12.7,362.4,12.7,90.4,12.7,90.4z"/>
		<path class="st1" d="M611.9,282.2L473,146.2h109.8l85.9,84.8l87.1-84.8h107.6L721.8,282.7L867.5,425H757.6l-92.8-91.1L570.4,425
			H464.6L611.9,282.2z"/>
		<path class="st1" d="M891.4,187.7c0-12.1,4.1-22.1,12.2-29.9c8.2-7.8,17.9-11.7,29.3-11.7h293.6v79.1H973.3v120.6h253.2V425H932.9
			c-11.4,0-21.2-3.9-29.3-11.7c-8.2-7.8-12.2-17.7-12.2-29.9V187.7z"/>
		<path class="st1" d="M1280.6,187.7c0-11.8,4.1-21.6,12.2-29.6c8.2-8,17.9-12,29.3-12h259.5c11.4,0,21.1,4,29.3,12
			c8.2,8,12.2,17.8,12.2,29.6v91.6c0,11.8-4.1,21.6-12.2,29.6c-8.2,8-17.9,11.9-29.3,11.9h-219.1v39.3h257.8V425h-298.2
			c-11.4,0-21.2-4-29.3-11.9c-8.2-8-12.2-17.8-12.2-29.6L1280.6,187.7L1280.6,187.7z M1541.3,257.1v-46.7h-178.7v46.7H1541.3z"/>
		<path class="st1" d="M1680.1,26.6h82V425h-82V26.6z"/>
	</g>
	<g>
		<path class="st1" d="M2046.7,287.4l-137.5-137.5h51.7l111.7,111.7l112.3-111.7h50l-137,136.4L2237,425h-51.7L2072,312.2
			L1958.6,425h-50L2046.7,287.4z"/>
	</g>
	<g>
		<path class="st1" d="M951,571.3c0-6.9,1.2-13.2,3.6-19.1c2.4-5.9,5.8-10.9,10.1-15.2s9.3-7.6,15-10.1c5.7-2.4,11.9-3.6,18.4-3.6
			h286.7v60.9h-270.4v178.3h270.4v60.9h-284.6c-6.9,0-13.3-1.3-19.3-3.9c-6-2.6-11.2-6-15.6-10.3c-4.4-4.3-7.9-9.3-10.5-15
			s-3.9-11.7-3.9-18L951,571.3L951,571.3z"/>
		<path class="st1" d="M1327.7,523.3h61.7v90h155.2c8.9,0,16.3,3.1,22.3,9.2c6,6.1,9,13.5,9,22.1v178.7h-61.7V672.9h-124.7v150.4
			h-61.7v-300H1327.7z"/>
		<path class="st1" d="M1614.5,723.1c0-9.1,3.1-16.6,9.2-22.5s13.5-8.8,22.1-8.8h159.4v-30h-159.4v-48.4h189.9c8.6,0,15.9,3,22.1,9
			c6.1,6,9.2,13.4,9.2,22.3v147.4c0,8.9-3.1,16.3-9.2,22.3c-6.2,6-13.5,9-22.1,9h-189.9c-8.6,0-15.9-2.9-22.1-8.8
			c-6.1-5.9-9.2-13.4-9.2-22.5V723.1z M1805.2,774.9v-34.7h-129v34.7H1805.2z"/>
		<path class="st1" d="M1952.2,672.9h-59.6v-59.6h59.6V549h61.7v64.3h99v59.6h-99v90.9h101.2v59.6h-131.6c-8.6,0-15.9-3-22.1-9
			c-6.1-6-9.2-13.4-9.2-22.3V672.9z"/>
		<path class="st1" d="M2145.9,571.3c0-6.9,1.2-13.2,3.6-19.1c2.4-5.9,5.8-10.9,10.1-15.2s9.3-7.6,15-10.1
			c5.7-2.4,11.9-3.6,18.4-3.6h277.7v60.9h-261.9v178.3h234.4v-60.4h-153.4v-60.9h168.9c7.1,0,13.7,1.3,19.7,3.9
			c6,2.6,11.1,6,15.2,10.3c4.1,4.3,7.3,9.3,9.6,15s3.4,11.7,3.4,18v87c0,6.9-1.3,13.2-3.9,19.1c-2.6,5.9-6,10.9-10.3,15.2
			s-9.2,7.6-14.8,10.1c-5.6,2.4-11.5,3.6-17.8,3.6h-264.9c-6.9,0-13.3-1.2-19.3-3.6c-6-2.4-11.2-5.8-15.6-10.1
			c-4.4-4.3-7.9-9.3-10.5-15s-3.9-11.9-3.9-18.4v-205H2145.9z"/>
		<path class="st1" d="M2545.4,571.3c0-6.9,1.2-13.2,3.6-19.1c2.4-5.9,5.8-10.9,10.1-15.2s9.3-7.6,15-10.1
			c5.7-2.4,11.9-3.6,18.4-3.6h267c6.9,0,13.2,1.3,19.1,3.9c5.8,2.6,10.9,6,15.2,10.3s7.6,9.3,10.1,15c2.4,5.7,3.6,11.7,3.6,18v129.4
			c0,6.9-1.2,13.2-3.6,19.1c-2.4,5.9-5.8,10.9-10.1,15.2s-9.3,7.6-15,10.1c-5.7,2.4-11.7,3.6-18,3.6h-252.4v75.4h-63L2545.4,571.3
			L2545.4,571.3z M2844.6,687.1V584.2h-236.2v102.9L2844.6,687.1L2844.6,687.1z"/>
		<path class="st1" d="M3084.6,584.2h-149.2v-60.9h360.9v60.9h-148.7v239.2h-63V584.2z"/>
	</g>
</g>
<g>
	<path class="st2" d="M1215.9,957.4v34H965.5v-34h104.4c-1.7-5.6-3.9-11.5-5.6-16.6l42.7-10.4c3.4,8.1,7.9,18.2,11.2,27H1215.9z
		 M1211.1,1164c0,17.1-4.2,24.4-16.6,29.2c-12.1,4.2-28.6,4.5-49.4,4.2c-1.4-6.5-4.5-14.3-7.9-21.3h-72.7v10.1H1027v-75.8h124.9
		v58.7c5.6,0,10.4-0.3,12.1-0.3c4.2,0,5.9-1.1,5.9-5.1v-60.1h-158.3v96H972v-128.9h239.2V1164z M1186.2,1062.1H1000v-62.9h186.1
		V1062.1z M1142.9,1025.8h-102.2v9.5h102.2V1025.8z M1116.3,1137.9h-51.7v10.7h51.7V1137.9z"/>
	<path class="st2" d="M1335.5,1071.9c-2.5,21.3-6.7,40.4-12.4,57c15.7,27.5,44.9,30.9,87.3,31.2c30.3,0,79.4-2,113.1-5.3
		c-5.6,8.1-10.9,26.4-12.9,37.3c-30.9,2-67.1,2.8-101.1,2.8c-48.6,0-79.7-5.3-100.8-32.3c-9,16.3-19.9,28.9-32.3,38.2
		c-5.3-7.9-18.5-21.6-26.4-27c22.7-15.4,37.9-41.5,46-76.6h-15.7c-6.5,0-15.2,2-17.7,4.5v-0.6c-2-8.1-9-25-12.4-32
		c4.8-1.1,9.5-3.4,15.2-9.3c4.2-4.2,13.5-16.3,22.2-28.9h-30.9v-32h55.3l4.8-2l24.1,10.7c-10.1,15.2-26.7,39.6-41,58.4h12.6l6.2-0.8
		L1335.5,1071.9z M1296.2,996.9c-7-12.1-22.5-31.7-34.5-45.8l30.6-18.2c12.9,13.2,27.8,30.6,35.7,42.1L1296.2,996.9z M1406,988.2
		h-64.8v-33.7h64.8v-21.3h39.6v21.3h66.3v33.7h-66.3v10.9h60.4v78.9h-43.5c21.3,11.2,44.1,25.3,56.7,36.8l-26.1,29.5
		c-10.1-10.1-28.6-23.3-47.4-34.8v39.9H1406V1107c-14,16.6-31.2,30.6-49.4,39.9c-5.6-9.3-17.4-23.6-25.8-30.9
		c21.6-8.1,43.2-22.2,57.3-37.9h-40.1v-78.9h58.1V988.2z M1385.2,1047.7h20.8v-18h-20.8V1047.7z M1445.5,1029.8v18h20.8v-18H1445.5z
		"/>
	<path class="st2" d="M1736.4,937.1c12.4,39.3,40.1,78.6,81.7,98.8c-8.7,8.7-22.5,26.7-28.9,38.2c-5.9-3.6-11.8-7.9-17.1-12.1
		c-2.5,76.4-5.6,108.1-14.9,119.6c-8.1,10.7-16.6,13.8-28.1,15.7c-9.8,1.7-25.5,1.7-41.5,1.4c-0.6-12.1-6.2-29.8-13.5-41.3
		c14,1.1,27.2,1.4,34.2,1.4c4.8,0,7.9-0.8,11.2-4.2c5.1-5.6,7.6-28.9,9.5-80.9h-46c-6.7,53.1-25.3,99.9-99.4,128
		c-5.1-11.5-16.8-28.9-26.7-37.9c61.5-20.2,76.1-53.1,81.4-90.1h-42.1v-17.7c-6.2,6.7-12.6,13.2-19.1,18.8
		c-7.3-8.1-24.7-23.6-34.2-30.6c30.9-22.2,55.6-60.4,68.2-101.6l43.2,10.4c-9.8,29.5-24.1,57.5-41,81.1h130
		c-15.7-18.5-28.4-39-37.3-59.5h-41.5v-37.6H1736.4z"/>
	<path class="st2" d="M1934.8,1117.4c-3.4-7.9-8.1-18-13.5-28.1v110.3h-39v-95.2c-7,19.1-15.4,36.2-24.7,48.8
		c-3.6-11.5-12.6-28.1-18.8-38.5c16.8-21.3,31.4-55.9,39-86.7H1847v-38.5h35.4v-56.7h39v56.7h37.1v38.5h-37.1v8.1
		c10.7,13.2,31.4,41.8,36.2,49.1L1934.8,1117.4z M2109.2,1065.4h-33.4v133.9h-40.4v-133.9h-29.2c-1.4,43.5-8.4,98-32.3,133.3
		c-7.3-6.2-24.4-16.6-34-20.2c26.1-37.6,28.1-92.9,28.1-133.1v-81.4c34-6.5,69.6-16.8,92.6-28.4l34.2,32.3
		c-26.4,11.2-58.1,19.4-88.4,25.3v33.7h102.7V1065.4z"/>
	<path class="st2" d="M2397.2,991.9h-78.3l23.3,4.5c-5.1,9.3-10.1,18.2-14.9,26.1h58.4V1164c0,16.8-3.9,24.4-15.4,29.2
		c-11.2,4.8-27.2,5.1-48.8,5.1c-1.7-9-6.5-21.6-10.9-29.5c11.8,0.6,27.8,0.6,31.7,0.3c4.5,0,6.2-1.4,6.2-5.3v-108.9h-35.9v1.4
		c0,4.8,0.3,7.6,4.8,7.6h7.3c4.2,0,13.2-0.6,17.1-2c0.6,9,0.8,17.4,2.2,26.4c-4.2,1.7-12.4,2.2-18.5,2.2h-18.5
		c-26.1,0-30.3-12.4-30.3-34.5v-1.1h-13.2c-3.1,17.7-10.7,30.6-31.2,39.3h93.8v71.6h-79.4v10.7h-33.7v-76.1l-3.1,0.6
		c-2.5-7-9-17.1-14.9-23.9v121.8h-38.7v-176.3h56.4c-2.8-7.9-7-17.4-10.4-25l18.2-5.6h-76.1v-34h108.6c-1.7-6.2-3.6-12.6-5.3-18.2
		l39.6-9.5c3.1,8.4,6.5,19.1,9,27.8h101.1V991.9z M2194.8,1073c21.1-3.6,29.2-9,32.8-18.2h-32.8V1073z M2289.7,1022.5
		c4.2-9.5,8.4-21.1,10.9-30.6h-60.4c4.5,8.7,9.3,18.5,12.1,25.3l-15.7,5.3H2289.7z M2246.5,1121.6v16.8h47.2v-16.8H2246.5z"/>
	<path class="st2" d="M2541.8,1156.4c-18.8,16.3-50.8,31.4-79.4,38.2c-5.3-8.4-16-21.9-23.9-29.2c27.5-3.6,58.4-12.1,74.7-21.9
		L2541.8,1156.4z M2692.2,1103.9v33.1H2585v62.6h-40.4V1137h-105.3v-33.1h105.3v-7.6h-79.4v-28.9h79.4v-7.9h-93.2v-30.6h46.9
		c-2.2-5.3-5.6-11.8-8.1-16.6l19.4-4.2h-69.6v-31.7h34.2c-3.9-9.8-9.8-21.9-15.2-31.4l35.1-11.8c7.6,11.8,16.3,28.1,19.9,38.7
		l-12.6,4.5h20.2v-43.8h37.9v43.8h13.5v-43.8h38.5v43.8h18.5l-8.4-2.5c5.9-11.2,12.4-27.5,15.7-39.6l43,9.8
		c-7.3,12.1-14.3,23.3-20.5,32.3h31.7v31.7h-75l30.9,7.6c-5.1,5.1-10.1,9.5-14.6,13.2h47.4v30.6H2585v7.9h82.5v28.9H2585v7.6H2692.2
		z M2531.4,1008.2c3.6,5.9,7.3,12.4,9.3,17.1l-16,3.7h75.2l-10.7-3.1c4.2-5.3,9.3-12.1,12.6-17.7H2531.4z M2621.5,1141.5
		c20.8,8.7,52.5,22.7,69.9,32l-29.8,21.1c-15.2-9-46.3-24.4-68.2-34.5L2621.5,1141.5z"/>
	<path class="st2" d="M2975.8,1018.3c-4.5,40.4-12.1,74.1-25,101.9c11.8,20.2,26.7,36.8,46.3,47.7c-8.1,6.7-19.9,21.3-25.3,31.4
		c-17.1-11.5-30.9-26.7-41.5-44.9c-14.9,19.1-34,34.2-58.7,46.6c-1.7-4.2-5.6-11.2-10.1-17.7l-8.7,7.9c-9-5.1-20.2-10.1-32.6-15.2
		c-18.2,9.5-44.6,18-81.7,23.3c-2.5-7.6-9.8-19.4-15.4-25.8c24.1-3.1,42.7-7.3,57.3-12.1c-7.9-2.5-15.7-4.8-23.6-7l-14-3.4
		c4.8-5.9,10.1-12.6,15.2-19.9h-26.7v-26.7h43.8c1.7-3.1,3.6-6.2,5.3-9.3h-37.9v-52.5h48.6v-5.9h-44.6v-30.3h-19.9v-28.4h19.9v-29.2
		h44.6v-16h30v16h47.7v29.2h14.3v28.4h-14.3v30.3h-47.7v5.9h50.5v8.4c14.3-31.7,24.4-75.8,30.9-118.5l33.4,6.2
		c-2.5,14.6-5.6,29.5-9,44.1h66.3v35.4H2975.8z M2775.6,1073.3h15.4v-8.7h-15.4V1073.3z M2776.2,973.6v6.7h14.9v-6.7H2776.2z
		 M2791.1,1011.8v-7.6h-14.9v7.6H2791.1z M2790.8,1136.2c8.1,2.2,16.3,4.8,24.4,7.6c4.8-4.2,8.1-8.4,10.4-12.6h-31.2L2790.8,1136.2z
		 M2859.3,1131.1c-2,7.9-5.6,16.3-12.4,24.1c7.3,2.8,14,5.6,20.5,8.4c19.9-11.2,35.1-26.1,46.3-44.4c-5.6-14.9-10.1-31.2-14-48.6
		c-2.8,7-5.9,13.8-9.3,19.9c-3.9-5.1-12.1-13.5-18.8-19.9v24.4h-56.4c-1.4,3.1-3.1,6.2-4.8,9.3h19.4v-6.2h31.4v6.2h20.5v26.7H2859.3
		z M2821.1,973.6v6.7h16v-6.7H2821.1z M2837.1,1011.8v-7.6h-16v7.6H2837.1z M2821.1,1064.6v8.7h15.4v-8.7H2821.1z M2919.4,1018.3
		c3.1,19.9,7,39.3,12.6,57.3c4.5-17.1,7.6-36.2,9.5-57.3H2919.4z"/>
	<path class="st2" d="M3085.5,1093.2v65.4c0,17.4-2.5,27.5-12.1,33.7c-9.3,6.2-22.2,7.6-40.1,7.6c-1.1-10.1-5.3-26.4-10.1-37.1
		c9,0.6,18.2,0.6,21.6,0.6s4.5-1.1,4.5-4.8v-55.3l-22.5,5.9l-8.4-39c9-1.7,19.4-3.9,30.9-6.7v-41.8h-25.5v-37.3h25.5v-51.4h36.2
		v51.4h19.4v37.3h-19.4v33.1l18-4.5l5.1,36.5L3085.5,1093.2z M3288.5,1115.1c-7.6,4.2-16,8.1-24.4,11.5
		c5.9,16.3,15.4,31.4,27.5,40.1c-7,5.6-17.1,16.8-21.9,24.7c-13.8-12.1-23.3-33.1-29.2-55.6l-7.6,2.8c7,21.3,2.2,42.7-7.3,51.7
		c-7,7.6-14.3,9.8-24.1,10.1c-4.5,0-9.5,0-14.3-0.3c-0.3-7-2.2-17.4-6.5-25.3c-12.4,6.2-25.5,11.5-37.3,15.2
		c-2.8-5.3-8.1-13.8-12.6-19.1c-3.7,10.4-8.1,19.9-14,28.4c-6.2-5.9-21.6-16.6-29.8-20.2c21.1-30.9,22.7-76.1,22.7-110.9v-85.9h60.1
		v-48.3h39v11.8h63.2v27.5h-63.2v9h46.6l5.3-0.8l25,4.5c-3.4,17.4-9,37.1-14,49.7l-30-6.2c1.7-5.1,3.4-11.8,4.8-19.1h-43.2v7
		l33.7-2.8l2.2,21.1l-35.7,3.4c0.8,3.1,2.5,4.5,7.9,4.5h27.8c7.3,0,20.5-0.6,25.8-2c0.6,8.4,1.1,15.7,2.2,23.3
		c-5.3,1.7-16.6,2-25.8,2h-37.9c-20.5,0-28.6-6.2-31.4-18l-22.7,2.2l-3.1-28.6l24.4-2v-10.1h-26.1v58.1c0,12.4-0.3,26.4-1.7,41
		c14.9-3.1,31.4-8.1,45.5-14h-39.9v-25.3h136.7v25.3h-57.3c-5.1,3.6-10.7,7.3-16.8,10.7c4.5,3.9,8.4,8.1,11.8,12.6
		c15.7-6.2,33.7-14.9,45.2-21.6L3288.5,1115.1z M3202.9,1138.4c-0.6-1.1-1.1-2.5-2-3.9c-14.9,8.7-34.5,17.4-50.8,22.5
		c-2.2-5.1-7-12.6-11.2-17.4c-2,10.4-4.2,20.2-7.6,29.8C3156.3,1163.7,3186.3,1151.3,3202.9,1138.4z M3142.8,1110.1
		c-0.8,9-2,18.5-3.6,27.8c16.8-3.6,37.3-10.4,50.8-17.4c-1.1-1.1-2-2-3.1-2.8c-11.2,4.5-22.7,8.1-33.7,10.9
		C3151,1123.8,3146.2,1114.8,3142.8,1110.1z M3204.3,1169c1.1-1.7,2.2-4.8,2.5-9c-6.7,4.5-14.3,9-22.5,12.9
		c4.2,0.3,7.6,0.6,10.7,0.6C3199,1173.5,3202,1172.7,3204.3,1169z"/>
</g>
</svg>
