<?xml version="1.0" encoding="utf-8"?>
<!-- Generator: Adobe Illustrator 25.4.1, SVG Export Plug-In . SVG Version: 6.00 Build 0)  -->
<svg version="1.1" id="圖層_1" xmlns="http://www.w3.org/2000/svg" xmlns:xlink="http://www.w3.org/1999/xlink" x="0px" y="0px"
	 viewBox="0 0 195.6 50" style="enable-background:new 0 0 195.6 50;" xml:space="preserve">
<style type="text/css">
	.st0{fill:#FFFFFF;}
	.st1{display:none;}
	.st2{display:inline;fill:#0A2F35;}
	.st3{enable-background:new    ;}
</style>
<g>
	
		<rect x="132.3" y="18.2" transform="matrix(0.7071 -0.7071 0.7071 0.7071 21.5526 101.5113)" class="st0" width="2" height="13.1"/>
	<rect x="126.8" y="23.7" transform="matrix(0.7071 -0.7071 0.7071 0.7071 21.5809 101.552)" class="st0" width="13.1" height="2"/>
</g>
<g id="圖層_2_00000148636654936444232240000004646953163329636738_" class="st1">
	<rect x="-800.5" y="-174.2" class="st2" width="1919.5" height="1079.7"/>
</g>
<path class="st0" d="M29.7,22.2c1.9,0,3.5,1.6,3.5,3.5v5.5c0,1.9-1.6,3.5-3.5,3.5H17.2c-0.2,0-0.4,0-0.6-0.1v7.1h-3V22.2H29.7z
	 M30.3,25.8c0-0.3-0.3-0.6-0.6-0.6H17.2c-0.3,0-0.6,0.3-0.6,0.6v5.5c0,0.3,0.3,0.6,0.6,0.6h12.5c0.3,0,0.6-0.3,0.6-0.6
	C30.3,31.2,30.3,25.8,30.3,25.8z"/>
<path class="st0" d="M51.1,29.5v12.3H38.6c-1.9,0-3.5-1.6-3.5-3.5v-5.8h13.1v-2.9c0-0.3-0.3-0.6-0.6-0.6H35.1v-2.9h12.5
	C49.5,26,51.1,27.6,51.1,29.5z M48.2,35.4H38v2.9c0,0.3,0.3,0.6,0.6,0.6h9.6C48.2,38.8,48.2,35.4,48.2,35.4z"/>
<path class="st0" d="M65.8,26v3h-8.9c-0.3,0-0.6,0.3-0.6,0.6v12.3h-2.9v-3.5v-8.7c0-1.9,1.6-3.5,3.5-3.5L65.8,26L65.8,26z"/>
<path class="st0" d="M70.3,29v9.3c0,0.3,0.3,0.6,0.6,0.6h5.9v3h-5.9c-1.9,0-3.5-1.6-3.5-3.5v-8.7V21h2.9v5h6.5v2.9L70.3,29L70.3,29z
	"/>
<path class="st0" d="M81.6,41.8h-3v-3h3V41.8L81.6,41.8z"/>
<path class="st0" d="M86.6,8.2h6v33.5h-5V14.9l-3.9,4.6h-6.5L86.6,8.2z"/>
<g class="st3">
	<path d="M104.8,37.4c-0.3-0.4-0.8-1-1.2-1.6v6.5h-2v-6.1c-0.6,0.6-1.3,1.1-1.9,1.5c-0.1-0.6-0.5-1.7-0.8-2c1.7-0.9,3.3-2.6,4.3-4.3
		h-3.8v-1.8h2.8c-0.3-0.6-0.8-1.3-1.2-1.8l1.5-0.9c0.6,0.6,1.2,1.5,1.5,2.1l-0.9,0.6h1.2l0.4-0.1l1.1,0.8c-0.5,1.2-1.2,2.4-1.9,3.5
		c0.7,0.6,1.9,1.8,2.2,2.1L104.8,37.4z M113,40.5c0.3,0,0.3-0.2,0.4-1.9c0.3,0.3,1.1,0.6,1.6,0.7c-0.2,2.3-0.6,2.9-1.8,2.9h-1.1
		c-1.5,0-1.8-0.6-1.8-2.2v-3.3h-0.9c-0.2,2.7-0.9,4.6-4.1,5.6c-0.2-0.5-0.7-1.1-1-1.5c2.7-0.8,3.1-2.1,3.3-4.1h-1.1v-9.4h7.4v9.4
		h-1.8V40c0,0.5,0,0.5,0.3,0.5H113z M108.3,30h3.7v-1.1h-3.7V30z M108.3,32.6h3.7v-1.1h-3.7V32.6z M108.3,35.1h3.7V34h-3.7V35.1z"/>
	<path d="M129.2,40.6c0.5,0,0.7-0.2,0.7-1.3c0.4,0.3,1.1,0.5,1.6,0.6c-0.2,1.7-0.7,2.2-2.2,2.2h-2.5c-2,0-2.5-0.4-2.5-1.9v-0.8h-1.8
		c-0.5,1.7-1.8,2.5-5.8,2.9c-0.1-0.4-0.5-1.1-0.8-1.5c3.2-0.2,4.2-0.6,4.7-1.4h-1.7v-5.6h9.6v5.6h-2.2v0.7c0,0.4,0.1,0.5,0.8,0.5
		H129.2z M118.2,34.5h-1.7V32h1.8l-0.3-4l0,0c1-0.3,2.3-0.9,3-1.4l1.1,0.8c-0.7,0.4-1.5,0.7-2.3,1v0.4h1.7v1h-1.7v0.5h1.7v1H120v0.5
		h2.3c-0.2-0.2-0.5-0.5-0.7-0.6c0.5-0.2,0.9-0.5,1.3-0.7c-0.3-0.2-0.6-0.4-0.8-0.5l0.8-0.7c0.3,0.1,0.6,0.3,0.9,0.5
		c0.3-0.2,0.5-0.5,0.6-0.7h0.1c-0.2-0.2-0.4-0.4-0.7-0.6c-0.4,0.3-0.8,0.6-1.3,0.8c-0.2-0.2-0.6-0.6-0.8-0.8
		c0.4-0.2,0.8-0.4,1.2-0.6c-0.3-0.2-0.5-0.3-0.7-0.4l0.8-0.7c0.3,0.1,0.5,0.3,0.8,0.5c0.3-0.2,0.5-0.5,0.6-0.7l1.1,0.3
		c-0.2,0.3-0.5,0.7-0.8,0.9c0.3,0.2,0.5,0.4,0.7,0.6l-0.7,0.7l1,0.3c-0.2,0.4-0.5,0.7-0.8,1c0.3,0.2,0.6,0.5,0.8,0.7l-0.7,0.7h2.7
		v-0.5H126v-1h1.8v-0.5H126v-1h1.8v-0.5h-2v-1.2h3.8c0,1.6-0.1,3.4-0.3,4.8h1.7v2.5h-1.8v-1.3h-11V34.5z M120.7,35.3h5.8v-0.6h-5.8
		V35.3z M120.7,36.8h5.8v-0.6h-5.8V36.8z M120.7,38.4h5.8v-0.6h-5.8V38.4z M124.7,32c-0.2-0.2-0.5-0.5-0.8-0.7
		c-0.3,0.3-0.7,0.5-1,0.7H124.7z"/>
	<path d="M138.7,27.4c-0.5,1.1-1,2.1-1.6,3.2v11.7h-1.9v-9c-0.5,0.7-1.1,1.3-1.6,1.8c-0.2-0.5-0.7-1.6-1.1-2.1
		c1.7-1.5,3.4-3.8,4.3-6.2L138.7,27.4z M145.2,40.2c0.9,0,1-0.7,1.1-3.5c0.5,0.4,1.2,0.7,1.8,0.8c-0.2,3.2-0.7,4.4-2.7,4.4h-2.8
		c-2.1,0-2.6-0.7-2.6-2.9V27h1.9v4.2h5.8v1.9h-5.8V39c0,1,0.1,1.2,0.9,1.2H145.2z"/>
	<path d="M164.3,36.2c-0.9,0.7-2,1.4-3,2c1,0.9,2.3,1.6,3.8,2c-0.4,0.4-1,1.2-1.3,1.8c-3.5-1.2-5.5-3.6-6.8-7.1
		c-0.6,0.7-1.4,1.3-2.2,1.9v2.8l3.6-1c0,0.5,0.2,1.3,0.3,1.8c-4.8,1.4-5.5,1.7-6,2c-0.1-0.5-0.5-1.4-0.8-1.8
		c0.4-0.2,0.8-0.6,0.8-1.3V38c-0.8,0.4-1.5,0.8-2.3,1c-0.3-0.5-0.9-1.2-1.3-1.6c1.9-0.6,3.9-1.6,5.3-2.7h-4.7V33h6.3v-1h-4.8v-1.6
		h4.8v-0.9h-5.6v-1.7h5.6v-1.2h2v1.2h5.8v1.7H158v0.9h5.2V32H158v1h6.4v1.7h-5.6c0.3,0.8,0.8,1.6,1.3,2.3c0.9-0.6,1.8-1.4,2.5-2
		L164.3,36.2z"/>
	<path d="M170.8,34.5c-0.3,1.5-0.8,3.1-1.3,4.4c0.3,0.1,0.6,0.4,1,0.7c1.1,0.7,2.7,0.8,4.7,0.8c1.9,0,4.9-0.2,6.8-0.4
		c-0.2,0.5-0.6,1.5-0.6,2c-1.4,0.1-4.3,0.2-6.3,0.2c-2.2,0-3.6-0.2-4.8-0.9c-0.7-0.4-1.3-0.9-1.6-0.9c-0.4,0-1,1.1-1.4,2.1l-1.3-1.9
		c0.6-0.7,1.2-1.3,1.7-1.6c0.4-0.8,0.7-1.9,1-2.9h-2.1c0.4-1,0.8-2.3,1.2-3.6h-1.5v-1.8h3.9c-0.4,1.2-0.8,2.5-1.1,3.7h0.7l0.3-0.1
		L170.8,34.5z M167.9,30.1c-0.2-0.8-0.6-2-0.9-2.9l1.8-0.5c0.3,0.9,0.7,2,1,2.8L167.9,30.1z M172.8,31.3h-2.1v-1.4h4.4V29h-3.3v-1.4
		h3.3v-1h2v1h3.4V29H177v0.9h4.4v1.4h-2.3l0.4,0.1c-0.3,0.5-0.5,0.9-0.8,1.3h2.5v1.4H177v0.8h3.7v1.4H177V37h4.3v1.4H177v1.3h-2
		v-1.3h-4.2V37h4.2v-0.8h-3.5v-1.4h3.5V34h-4.1v-1.4h2.2c-0.1-0.4-0.3-0.9-0.5-1.3H172.8z M177,32.6c0.2-0.4,0.4-0.8,0.5-1.3h-3.1
		c0.2,0.4,0.4,0.9,0.5,1.3l-0.5,0.1h2.9L177,32.6z"/>
</g>
<g class="st3">
	<path d="M114.4,12.4c-0.3,2.5-0.7,4.5-1.4,6.3c0.7,1.3,1.5,2.3,2.6,3c-0.4,0.3-0.9,0.9-1.1,1.4c-1-0.7-1.8-1.6-2.4-2.6
		c-0.8,1.2-1.7,2.2-3,3c-0.1-0.3-0.5-0.8-0.8-1.2l-1.1,0.9c-0.6-0.4-1.3-0.8-2.2-1.2c-1.1,0.5-2.6,0.9-4.7,1.2
		c-0.1-0.4-0.5-1-0.7-1.3c1.5-0.2,2.6-0.5,3.5-0.8c-0.8-0.3-1.5-0.6-2.2-0.8c0.2-0.3,0.5-0.6,0.7-1l-1.5,0.1l-0.2-1.3
		c0.7,0,1.6-0.1,2.6-0.1c0.2-0.3,0.4-0.7,0.6-1h-2.5v-3h3v-0.5h-2.5v-1.8H100v-1.4h1.3V8.7h2.5v-1h1.5v1h2.7v1.7h1.1v1.4H108v1.8
		h-2.7V14h3.1v1.2c1.1-1.8,1.7-4.6,2-7.5l1.7,0.2c-0.1,0.9-0.3,1.9-0.4,2.8h4v1.7H114.4z M102.4,15.8h1.4v-0.6h-1.4V15.8z
		 M102.9,9.9v0.5h0.9V9.9H102.9z M103.8,12.3v-0.6h-0.9v0.6H103.8z M103.3,19.7c0.6,0.2,1.1,0.4,1.7,0.6c0.6-0.4,1-0.8,1.2-1.2
		l-2.5,0.1L103.3,19.7z M107.9,19.1c-0.2,0.7-0.5,1.3-1.3,2c0.6,0.3,1.1,0.5,1.6,0.8c1.3-0.8,2.3-1.8,3-3.2c-0.4-1-0.7-2.1-1-3.3
		c-0.2,0.4-0.4,0.9-0.6,1.2c-0.3-0.3-0.9-0.9-1.2-1.2V17H105c-0.2,0.3-0.4,0.6-0.5,1l2-0.1v-0.6h1.6v0.5h0.5v1.3L107.9,19.1z
		 M105.3,9.9v0.5h1V9.9H105.3z M106.2,12.3v-0.6h-1v0.6H106.2z M105.3,15.2v0.6h1.3v-0.6H105.3z M111.2,12.4c0.2,1.4,0.5,2.8,0.9,4
		c0.4-1.2,0.6-2.5,0.7-4H111.2z"/>
	<path d="M120.2,16.9v4.3c0,0.9-0.2,1.4-0.7,1.7c-0.5,0.3-1.2,0.4-2.3,0.4c-0.1-0.5-0.3-1.3-0.5-1.8c0.6,0,1.2,0,1.4,0
		c0.2,0,0.3-0.1,0.3-0.3v-3.8c-0.6,0.2-1.1,0.3-1.6,0.4l-0.4-1.9c0.6-0.1,1.3-0.3,2-0.5v-2.8h-1.7v-1.8h1.7V7.7h1.8v3.1h1.3v1.8
		h-1.3V15l1.3-0.4l0.3,1.8L120.2,16.9z M123.6,15.5c0,2.4-0.2,5.6-1.7,7.7c-0.3-0.3-1.1-0.8-1.5-1c1.3-1.9,1.5-4.6,1.5-6.7v-5h3.6
		V7.7h1.9v0.8h3.8v1.4h-3.8v0.7h3.2h0.3l1.2,0.2c-0.2,0.9-0.5,2-0.8,2.7l-1.5-0.3c0.1-0.3,0.2-0.7,0.3-1.2h-3v0.6l2.3-0.2l0.1,1.1
		l-2.4,0.2c0,0.3,0.1,0.5,0.5,0.5h1.9c0.4,0,1.1,0,1.4-0.1c0,0.4,0.1,0.8,0.1,1.2c-0.3,0.1-0.9,0.1-1.4,0.1h-2.4
		c-1.2,0-1.6-0.4-1.7-1.2l-1.6,0.2l-0.1-1.4l1.7-0.2V12h-1.9C123.6,12,123.6,15.5,123.6,15.5z M132.2,18c-0.5,0.3-1.1,0.6-1.6,0.8
		c0.4,1.1,1,2.2,1.9,2.7c-0.4,0.3-0.9,0.8-1.1,1.2c-1-0.7-1.6-2-2-3.4c-0.2,0.1-0.4,0.1-0.6,0.2c0.5,1.4,0.2,2.7-0.4,3.2
		c-0.4,0.4-0.8,0.5-1.3,0.6c-0.3,0-0.6,0-0.9,0c0-0.4-0.1-1-0.4-1.4c0.4,0.1,0.7,0.1,0.9,0.1c0.2,0,0.4,0,0.6-0.3
		c0.2-0.2,0.3-0.5,0.2-1c-1.1,0.8-2.6,1.6-3.9,2c-0.2-0.3-0.5-0.8-0.7-1c1.5-0.4,3.4-1.2,4.4-2.1c0-0.1-0.1-0.2-0.2-0.4
		c-0.9,0.6-2.1,1.1-3.2,1.5c-0.1-0.3-0.4-0.7-0.7-1c1.1-0.2,2.4-0.7,3.3-1.3c-0.1-0.1-0.2-0.2-0.3-0.3c-0.7,0.3-1.5,0.6-2.2,0.8
		c-0.1-0.3-0.4-0.7-0.6-1c1-0.3,2.2-0.6,3.1-1.1h-2.8v-1.3h8.1v1.3h-3.5c-0.3,0.3-0.7,0.5-1.1,0.7c0.3,0.3,0.6,0.6,0.8,0.9
		c1-0.4,2.1-1,2.8-1.4L132.2,18z"/>
	<path d="M144.3,7.9c0.8,2.4,2.5,4.8,4.8,6c-0.4,0.4-1.1,1.3-1.4,1.8c-0.4-0.3-0.9-0.6-1.3-1c-0.2,4.9-0.4,6.9-1,7.5
		c-0.4,0.6-0.9,0.7-1.5,0.8c-0.6,0.1-1.5,0.1-2.5,0.1c0-0.6-0.3-1.4-0.7-2c0.9,0.1,1.8,0.1,2.2,0.1c0.3,0,0.5,0,0.7-0.2
		c0.3-0.4,0.5-1.9,0.7-5.3H141c-0.4,3.2-1.5,6.1-5.8,7.7c-0.3-0.6-0.8-1.4-1.3-1.8c3.8-1.2,4.6-3.4,5-5.8h-2.8v-1.1
		c-0.4,0.4-0.8,0.8-1.3,1.2c-0.4-0.4-1.2-1.1-1.7-1.5c1.9-1.4,3.4-3.6,4.1-6.1l2.1,0.5c-0.6,1.9-1.5,3.6-2.6,5h8.7
		c-1.1-1.2-1.9-2.6-2.5-4h-2.7V7.9H144.3z"/>
	<path d="M155.5,18.1c-0.2-0.5-0.6-1.3-1.1-2v7.2h-1.9v-6.5c-0.5,1.4-1.1,2.7-1.8,3.6c-0.2-0.6-0.6-1.4-0.9-1.9
		c1.1-1.3,2-3.6,2.5-5.6h-2V11h2.3V7.6h1.9V11h2.3v2h-2.3v0.6c0.6,0.8,1.9,2.5,2.2,2.9L155.5,18.1z M165.7,15.1h-2.2v8.1h-2v-8.1
		h-2.2c-0.1,2.5-0.4,5.9-1.9,8.1c-0.4-0.3-1.2-0.8-1.7-1c1.5-2.2,1.7-5.4,1.7-7.8V9.5c2.1-0.4,4.3-1,5.6-1.7l1.7,1.6
		c-1.6,0.7-3.5,1.2-5.4,1.5v2.4h6.3L165.7,15.1L165.7,15.1z"/>
</g>
</svg>
