<?xml version="1.0" encoding="utf-8"?>
<!-- Generator: Adobe Illustrator 25.4.1, SVG Export Plug-In . SVG Version: 6.00 Build 0)  -->
<svg version="1.1" id="圖層_1" xmlns="http://www.w3.org/2000/svg" xmlns:xlink="http://www.w3.org/1999/xlink" x="0px" y="0px"
	 viewBox="0 0 195.6 50" style="enable-background:new 0 0 195.6 50;" xml:space="preserve">
<style type="text/css">
	.st0{fill:#FFFFFF;}
	.st1{display:none;}
	.st2{display:inline;fill:#0A2F35;}
</style>
<g>
	
		<rect x="132.3" y="19.2" transform="matrix(0.7071 -0.7071 0.7071 0.7071 20.8455 101.8042)" class="st0" width="2" height="13.1"/>
	
		<rect x="126.8" y="24.7" transform="matrix(0.7071 -0.7071 0.7071 0.7071 20.8738 101.8449)" class="st0" width="13.1" height="2"/>
</g>
<g id="圖層_2_00000148636654936444232240000004646953163329636738_" class="st1">
	<rect x="-815.3" y="-174.2" class="st2" width="1919.5" height="1079.7"/>
</g>
<path class="st0" d="M16.1,21.8c1.9,0,3.5,1.6,3.5,3.5v5.5c0,1.9-1.6,3.5-3.5,3.5H3.5c-0.2,0-0.4,0-0.6-0.1v7.1H0V21.8H16.1z
	 M16.6,25.3c0-0.3-0.3-0.6-0.6-0.6H3.5c-0.3,0-0.6,0.3-0.6,0.6v5.5c0,0.3,0.3,0.6,0.6,0.6H16c0.3,0,0.6-0.3,0.6-0.6V25.3z"/>
<path class="st0" d="M37.5,29.1v12.3H25c-1.9,0-3.5-1.6-3.5-3.5V32h13.1v-2.9c0-0.3-0.3-0.6-0.6-0.6H21.4v-2.9h12.5
	C35.9,25.6,37.5,27.2,37.5,29.1z M34.5,34.9H24.3v2.9c0,0.3,0.3,0.6,0.6,0.6h9.6V34.9z"/>
<path class="st0" d="M52.1,25.6v2.9h-8.9c-0.3,0-0.6,0.3-0.6,0.6v12.3h-2.9v-3.5v-8.7c0-1.9,1.6-3.5,3.5-3.5L52.1,25.6L52.1,25.6z"
	/>
<path class="st0" d="M56.6,28.5v9.3c0,0.3,0.3,0.6,0.6,0.6h5.9v3h-5.9c-1.9,0-3.5-1.6-3.5-3.5v-8.7v-8.7h2.9v5.1H63v2.9L56.6,28.5
	L56.6,28.5z"/>
<path class="st0" d="M67.9,41.8h-3v-3h3V41.8L67.9,41.8z"/>
<g>
	<g>
		<path d="M93.1,34.7c0-4.1,2.6-6.5,5.7-6.5c1.6,0,2.8,0.8,3.6,1.6l-1.3,1.6c-0.6-0.6-1.3-1-2.3-1c-1.9,0-3.3,1.6-3.3,4.3
			s1.3,4.3,3.2,4.3c1.1,0,1.9-0.5,2.6-1.2l1.3,1.5c-1,1.2-2.3,1.8-3.9,1.8C95.6,41.1,93.1,38.8,93.1,34.7z"/>
		<path d="M104.5,27.5h2.4v3.4l-0.1,1.8c0.8-0.7,1.7-1.4,2.9-1.4c2,0,2.9,1.4,2.9,3.8v5.8h-2.5v-5.5c0-1.4-0.4-2-1.3-2
			c-0.8,0-1.3,0.4-2,1.1v6.4h-2.4L104.5,27.5L104.5,27.5z"/>
		<path d="M114.7,38.3c0-2,1.6-3.1,5.4-3.5c0-0.9-0.4-1.6-1.6-1.6c-0.9,0-1.7,0.4-2.6,0.9l-0.9-1.6c1.1-0.7,2.4-1.2,3.9-1.2
			c2.4,0,3.6,1.4,3.6,4.1v5.5h-2l-0.2-1h-0.1c-0.8,0.7-1.8,1.2-2.8,1.2C115.8,41.1,114.7,39.9,114.7,38.3z M120.1,38.2v-1.9
			c-2.3,0.3-3,0.9-3,1.8c0,0.7,0.5,1.1,1.2,1.1C119,39.2,119.5,38.8,120.1,38.2z"/>
		<path d="M125.1,37.6v-4.1h-1.3v-1.8l1.4-0.1l0.3-2.5h2.1v2.5h2.3v1.9h-2.3v4.1c0,1.1,0.4,1.6,1.3,1.6c0.3,0,0.7-0.1,0.9-0.2
			l0.4,1.8c-0.5,0.2-1.2,0.4-2,0.4C125.9,41.1,125.1,39.7,125.1,37.6z"/>
		<path d="M131.3,34.7c0-4.1,2.6-6.5,5.9-6.5c1.8,0,3,0.8,3.8,1.6l-1.3,1.6c-0.6-0.6-1.3-1-2.4-1c-2.1,0-3.5,1.6-3.5,4.3
			s1.2,4.3,3.7,4.3c0.6,0,1.2-0.2,1.6-0.5V36h-2.2v-2h4.4v5.6c-0.8,0.8-2.3,1.5-4,1.5C133.9,41.1,131.3,38.8,131.3,34.7z"/>
		<path d="M143.9,28.5h4.1c2.7,0,4.8,1,4.8,3.9c0,2.8-2.1,4.1-4.8,4.1h-1.7v4.4h-2.5L143.9,28.5L143.9,28.5z M147.9,34.5
			c1.7,0,2.5-0.7,2.5-2.1c0-1.4-0.9-1.9-2.6-1.9h-1.4v4.1h1.5V34.5z"/>
		<path d="M157.2,30.5h-3.5v-2.1h9.5v2.1h-3.5v10.3h-2.5V30.5z"/>
		<path d="M171.4,33.7c-0.1,0.1-0.2,0.2-0.3,0.3c-0.2-0.2-0.5-0.5-0.9-0.8v4.2h-1.7v-3.9c-0.3,0.3-0.5,0.5-0.8,0.7
			c-0.1-0.2-0.4-0.4-0.6-0.7c0,2.7-0.4,6.4-1.6,8.8c-0.3-0.4-1.1-1-1.5-1.2c1.2-2.4,1.3-5.9,1.3-8.4v-4.9h6.4
			c-0.2-0.3-0.3-0.7-0.5-0.9l1.8-0.5c0.3,0.4,0.6,1,0.9,1.4h5.8v1.6h-3.5c0.3,0.4,0.6,0.8,0.7,1.2l-0.4,0.2h2.7V32h-2.5v0.6h2.1v1
			h-2.1v0.6h2.1v1h-2.1v0.7h2.7V37h-6.1c0.9,0.4,1.9,1,2.5,1.6l-1.2,1.2c-0.5-0.5-1.6-1.3-2.6-1.7l0.5-0.5h-1.1L171.4,33.7
			L171.4,33.7z M166.7,41.1c0.8-0.7,1.4-1.8,1.7-2.9l1.6,0.6c-0.4,1.2-0.9,2.4-1.8,3.2L166.7,41.1z M167.2,32.5
			c0.9-0.9,1.8-1.9,2.3-3h-2.3V32.5z M171.2,29.9c-0.3,0.5-0.6,1.1-1,1.6v1c0.8-0.8,1.5-1.9,2-3H170L171.2,29.9z M174.7,40.6
			c0.5,0,0.5-0.2,0.6-1.2c0.4,0.2,1.1,0.5,1.6,0.6c-0.2,1.7-0.7,2.1-2,2.1h-2.1c-1.8,0-2.2-0.5-2.2-2v-1.8h1.8v1.8
			c0,0.4,0.1,0.5,0.7,0.5C173.1,40.6,174.7,40.6,174.7,40.6z M175.2,30.8c-0.2-0.3-0.4-0.7-0.6-1l1-0.4H173l1,0.3
			c-0.2,0.4-0.3,0.7-0.5,1.1H175.2z M175,32h-2v0.6h2V32z M175,33.5h-2v0.6h2V33.5z M175,35.1h-2v0.7h2V35.1z M177.6,38
			c0.9,1,1.8,2.3,2.2,3.2l-1.6,0.8c-0.3-0.9-1.2-2.3-2.1-3.2L177.6,38z"/>
		<path d="M195.4,39.9c0,1.1-0.2,1.6-0.9,1.9c-0.7,0.3-1.7,0.4-3.2,0.4c-0.1-0.5-0.4-1.4-0.6-1.9c0.9,0.1,2,0,2.3,0s0.4-0.1,0.4-0.4
			v-2.5h-3.5v4.7h-2v-4.7h-3.4c-0.3,1.8-0.9,3.7-2.1,5c-0.3-0.4-1.1-1.1-1.6-1.3c1.8-2,2-5,2-7.3v-6h12.6V39.9z M187.9,35.5v-2.1
			h-3.1v0.3c0,0.5,0,1.1-0.1,1.8H187.9z M184.8,29.7v1.9h3.1v-1.9H184.8z M193.4,29.7h-3.5v1.9h3.5V29.7z M193.4,35.5v-2.1h-3.5v2.1
			H193.4z"/>
	</g>
</g>
<g>
	<g>
		<path d="M94.6,9.5h7.6v2.1h-5.1v2.9h4.3v2.1h-4.3v3.3h5.3V22h-7.8V9.5z"/>
		<path d="M105.8,17l-2.7-4.5h2.6l0.9,1.7c0.3,0.5,0.6,1.1,0.8,1.6h0.1c0.2-0.5,0.5-1.1,0.7-1.6l0.8-1.7h2.5l-2.7,4.8l2.9,4.6h-2.6
			l-1-1.7c-0.3-0.6-0.6-1.1-0.9-1.7H107c-0.3,0.5-0.5,1.1-0.8,1.7l-0.9,1.7h-2.5L105.8,17z"/>
		<path d="M112.2,17.2c0-3.1,2.2-4.9,4.8-4.9c1.2,0,2,0.5,2.7,1l-1.2,1.6c-0.5-0.4-0.9-0.6-1.4-0.6c-1.4,0-2.4,1.2-2.4,2.9
			c0,1.8,1,2.9,2.3,2.9c0.7,0,1.3-0.3,1.8-0.8l1,1.6c-0.9,0.8-2,1.1-3.1,1.1C114.2,22.1,112.2,20.3,112.2,17.2z"/>
		<path d="M120.6,17.2c0-3,2.1-4.9,4.4-4.9c2.6,0,3.9,1.9,3.9,4.5c0,0.5,0,0.9-0.1,1.1H123c0.2,1.5,1.2,2.3,2.6,2.3
			c0.8,0,1.4-0.2,2.1-0.7l0.8,1.5c-0.9,0.6-2.1,1-3.3,1C122.6,22.1,120.6,20.3,120.6,17.2z M126.7,16.3c0-1.3-0.6-2.1-1.8-2.1
			c-1,0-1.9,0.7-2,2.1H126.7z"/>
		<path d="M130.9,19.3V8.6h2.4v10.8c0,0.6,0.3,0.7,0.5,0.7c0.1,0,0.2,0,0.3,0l0.3,1.8c-0.3,0.1-0.7,0.2-1.3,0.2
			C131.5,22.1,130.9,21,130.9,19.3z"/>
		<path d="M150.8,12.4v1.4h-3l-0.1,1.3H138l0.2-1.3h-2.6v-1.4h2.8l0.2-1.3h9.5l-0.1,1.3H150.8z M146.4,21.1c1.5,0.4,2.9,0.8,3.9,1.2
			l-1.4,1.2c-1.2-0.5-3.2-1.1-5.1-1.6l0.7-0.8h-3.1l1,0.7c-1.4,0.7-3.7,1.4-5.7,1.7c-0.2-0.4-0.7-1-1.1-1.4c1.5-0.2,3.2-0.6,4.4-1
			h-2.4v-5.4h10.9v5.4C148.5,21.1,146.4,21.1,146.4,21.1z M137.8,12H136V9.1h6.1c-0.1-0.4-0.3-0.7-0.5-1l1.7-0.5
			c0.3,0.5,0.6,1,0.8,1.5h6.1V12h-1.9v-1.4h-10.6L137.8,12L137.8,12z M139.7,17.1h7v-0.5h-7V17.1z M139.7,18.6h7v-0.5h-7V18.6z
			 M139.7,20.1h7v-0.5h-7V20.1z M139.9,14.2h2.2l0.1-0.5H140L139.9,14.2z M140.2,12.2l-0.1,0.5h2.2l0.1-0.5H140.2z M145.9,14.2v-0.5
			h-2.1l-0.1,0.5H145.9z M146.1,12.2H144v0.5h2.1V12.2z"/>
		<path d="M157.5,21v2.3h-1.9V21H152v-1.7h3.6v-0.8h-2.9v-6h7.8v6h-3v0.8h3.5V21H157.5z M156.3,11.7h-3.7V8.2h3.7V11.7z M154.8,9.4
			h-0.9v1.1h0.9V9.4z M154.3,14.7h1.4v-0.9h-1.4V14.7z M154.3,17h1.4v-0.9h-1.4V17z M160.7,11.7h-3.8V8.2h3.8V11.7z M158.8,13.8
			h-1.4v0.9h1.4V13.8z M158.8,16.1h-1.4V17h1.4V16.1z M159.2,9.4h-0.9v1.1h0.9V9.4z M167.3,14.9c-0.5,1.6-1.3,3.2-2.3,4.6
			c0.3,0.9,0.6,1.5,1,1.5c0.3,0,0.5-0.8,0.5-2.3c0.3,0.4,1.1,0.9,1.4,1.1c-0.4,2.9-1.3,3.6-2,3.5c-1,0-1.8-0.8-2.3-2.2
			c-0.8,0.8-1.6,1.5-2.5,2c-0.3-0.5-0.9-1-1.4-1.4c1.3-0.6,2.4-1.5,3.4-2.6c-0.3-1.4-0.6-3-0.7-4.9l-1.4,0.2l-0.2-1.8l1.5-0.2
			c-0.1-1.4-0.2-3-0.2-4.6h1.9c0,1.5,0.1,3,0.2,4.4l3.6-0.4l0.2,1.8l-3.6,0.5c0.1,1.1,0.2,2.1,0.4,3c0.6-1,1-2,1.3-3L167.3,14.9z
			 M165.9,11.6c-0.3-0.8-0.9-2-1.6-2.9l1.5-0.8c0.7,0.9,1.4,2,1.7,2.8L165.9,11.6z"/>
	</g>
</g>
<path class="st0" d="M84.3,8.2c3.4,0,6,2.7,6,6v7.6c0,3.4-2.7,6-6,6h-8.5c-0.6,0-1,0.5-1,1v6.7c0,0.6,0.5,1,1,1h14.6v5H69.7V29
	c0-3.4,2.7-6,6-6h8.5c0.6,0,1-0.5,1-1v-7.6c0-0.6-0.5-1-1-1h-8.5c-0.6,0-1,0.5-1,1v2h-5v-2c0-3.3,2.7-6,6-6h8.6V8.2z"/>
</svg>
