<?xml version="1.0" encoding="utf-8"?>
<!-- Generator: Adobe Illustrator 25.4.1, SVG Export Plug-In . SVG Version: 6.00 Build 0)  -->
<svg version="1.1" id="圖層_1" xmlns="http://www.w3.org/2000/svg" xmlns:xlink="http://www.w3.org/1999/xlink" x="0px" y="0px"
	 viewBox="0 0 794.6 302.4" style="enable-background:new 0 0 794.6 302.4;" xml:space="preserve">
<style type="text/css">
	.st0{fill:#14294E;}
	.st1{fill:#76D4E4;}
	.st2{fill:#FFFFFF;}
	.st3{fill:#321B7B;}
	.st4{fill:#FF7900;}
	.st5{fill:#DBDBDB;}
	.st6{fill:#515151;}
	.st7{fill:#F79F7C;}
	.st8{fill:#D6724D;}
	.st9{fill:#FDFEFF;}
</style>
<path class="st0" d="M742.9,264.8h-225c-2.8,0-5-2.2-5-5v-75c0-2.8,2.2-5,5-5h225c2.8,0,5,2.2,5,5v75
	C747.9,262.6,745.7,264.8,742.9,264.8z"/>
<path class="st0" d="M727.9,147.4h-290c-2.8,0-5-2.2-5-5v-75c0-2.8,2.2-5,5-5h290c2.8,0,5,2.2,5,5v75
	C732.9,145.1,730.7,147.4,727.9,147.4z"/>
<path class="st0" d="M257.8,242.8H58c-2.8,0-5-2.2-5-5v-75c0-2.8,2.2-5,5-5h199.8c2.8,0,5,2.2,5,5v75
	C262.8,240.5,260.5,242.8,257.8,242.8z"/>
<polygon class="st0" points="755.8,92 732.1,78.3 732.1,105.6 "/>
<polygon class="st0" points="31.8,189.6 55.4,203.2 55.4,175.9 "/>
<path class="st0" d="M314,116.3H101.5c-2.8,0-5-2.2-5-5v-75c0-2.8,2.2-5,5-5H314c2.8,0,5,2.2,5,5v75C319,114,316.7,116.3,314,116.3z
	"/>
<polygon class="st0" points="75.3,63.1 98.9,76.7 98.9,49.4 "/>
<polygon class="st0" points="770.9,207.3 747.2,193.6 747.2,220.9 "/>
<path class="st1" d="M737.9,259.9h-225c-2.8,0-5-2.3-5-5v-75c0-2.8,2.2-5,5-5h225c2.8,0,5,2.2,5,5v75
	C742.9,257.6,740.7,259.9,737.9,259.9z"/>
<path class="st1" d="M722.9,142.4h-290c-2.8,0-5-2.2-5-5v-75c0-2.8,2.2-5,5-5h290c2.8,0,5,2.2,5,5v75
	C727.9,140.1,725.7,142.4,722.9,142.4z"/>
<path class="st1" d="M252.8,237.8H53c-2.8,0-5-2.2-5-5v-75c0-2.8,2.2-5,5-5h199.8c2.8,0,5,2.2,5,5v75
	C257.8,235.6,255.5,237.8,252.8,237.8z"/>
<path class="st2" d="M291.6,93.5"/>
<polygon class="st1" points="750.8,87 727.1,73.3 727.1,100.6 "/>
<polygon class="st1" points="26.8,181.6 50.4,195.2 50.4,167.9 "/>
<path class="st1" d="M309,111.3H96.5c-2.8,0-5-2.2-5-5v-75c0-2.8,2.2-5,5-5H309c2.8,0,5,2.2,5,5v75C314,109.1,311.7,111.3,309,111.3
	z"/>
<polygon class="st1" points="70.3,55.1 93.9,68.7 93.9,41.4 "/>
<polygon class="st1" points="765.9,202.3 742.2,188.6 742.2,215.9 "/>
<g>
	<path class="st3" d="M537.5,208.9v2h-1.9v-15.2h6.9v13.2H537.5z M537.5,197.6v3.7h3.1v-3.7H537.5z M540.6,207v-3.9h-3.1v3.9H540.6z
		 M554.1,212.2c0,1.2-0.3,1.8-1,2.1c-0.8,0.4-2,0.4-3.8,0.4c-0.1-0.6-0.4-1.5-0.7-2c1.3,0,2.7,0,3.1,0c0.4,0,0.5-0.2,0.5-0.5v-4.4
		h-5.6c-0.5,2.6-1.5,5.2-3.8,7.1c-0.3-0.4-1.1-1.1-1.6-1.4c3.4-2.8,3.8-6.9,3.8-10.3v-7.8h9.2v16.8L554.1,212.2L554.1,212.2z
		 M552.1,205.9v-3.4H547v0.7c0,0.9,0,1.8-0.1,2.7H552.1z M546.9,197.3v3.3h5.1v-3.3H546.9z"/>
	<path class="st3" d="M568.3,204.8c1.5,3.9,4.4,6.7,8.8,7.9c-0.5,0.4-1.1,1.3-1.4,1.9c-4.2-1.4-7-4.2-8.8-8.1
		c-1.1,3.1-3.5,6.1-8.8,8.2c-0.3-0.5-0.9-1.3-1.3-1.7c5.4-2.1,7.5-5.1,8.4-8.1h-7.7v-2.1h8.1c0.1-0.7,0.1-1.5,0.1-2.1v-2.4h-7.4
		v-2.1h17.3v2.1h-7.7v2.4c0,0.7,0,1.4-0.1,2.1h8.7v2.1L568.3,204.8L568.3,204.8L568.3,204.8z"/>
	<path class="st3" d="M589.5,198.1v3.8l0.4-0.4c2.5,1.2,6,3.2,7.7,4.5l-1.5,1.9c-1.4-1.2-4.2-2.9-6.5-4.2v11.1h-2.2v-16.7h-8.2V196
		h19.4v2.1H589.5z"/>
	<path class="st3" d="M620.6,206.4h-8.7v8.2h-2.1v-8.2h-8.7v-2h8.7v-5.1h-4.2c-0.8,1.5-1.7,2.9-2.7,4c-0.4-0.4-1.4-1-1.9-1.3
		c1.8-1.8,3.4-4.7,4.3-7.7l2.2,0.5c-0.3,0.8-0.5,1.6-0.9,2.4h12.3v2h-7v5.1h8.7L620.6,206.4L620.6,206.4z"/>
	<path class="st3" d="M629.5,207.9c-0.1-0.3-0.1-0.7-0.2-1.2c-4.7,0.7-5.4,0.9-5.9,1.1c-0.1-0.4-0.4-1.4-0.6-1.9
		c0.5-0.1,1-0.6,1.7-1.4c0.3-0.4,0.9-1.1,1.6-2.2c-2,0.2-2.5,0.4-2.8,0.5c-0.1-0.4-0.4-1.3-0.6-1.8c0.4-0.1,0.8-0.5,1.2-1.2
		c0.5-0.7,2-3.1,2.9-5.5l1.9,0.8c-0.9,2-2.1,4-3.3,5.6l1.9-0.2c0.6-0.9,1.1-1.9,1.6-2.9l1.8,1.1c-1.3,2.4-3.1,4.8-4.8,6.7l3-0.4
		c-0.2-0.7-0.4-1.3-0.7-1.9l1.5-0.4c0.6,1.5,1.2,3.4,1.5,4.5L629.5,207.9z M625.4,208.9c-0.2,2-0.6,4.1-1.1,5.5
		c-0.4-0.2-1.2-0.5-1.7-0.6c0.5-1.3,0.8-3.3,1-5.2L625.4,208.9z M627.8,208.5c0.3,1.5,0.5,3.5,0.6,4.8l-1.6,0.4
		c0-1.3-0.3-3.3-0.6-4.9L627.8,208.5z M630,208c0.5,1.3,1,3,1.2,4.1l-1.6,0.5c-0.2-1.1-0.7-2.8-1.1-4.1L630,208z M638,195
		c-0.1,0.2-0.2,0.5-0.3,0.7c1.4,2.3,3.7,4.8,5.8,6.1c-0.5,0.4-1.2,1.1-1.5,1.7c-0.5-0.4-1.1-0.9-1.6-1.5v1.4h-7.2v-1.1
		c-0.5,0.5-1.1,1-1.7,1.4c-0.3-0.4-1-1.1-1.5-1.5c2.8-1.8,5.1-4.8,6.2-7.7L638,195z M632.1,205.6h9.6v9.1h-2.1v-1.1h-5.5v1.1h-2
		V205.6z M639.8,201.6c-1.1-1.2-2.2-2.6-3-4c-0.8,1.4-1.8,2.8-2.9,4H639.8z M634.1,207.4v4.4h5.5v-4.4H634.1z"/>
	<path class="st3" d="M663.7,204.4c-1,1.8-2.2,3.5-3.7,5c0.7,2,1.6,3.3,2.5,3.3c0.5,0,0.8-1.1,0.9-3.8c0.5,0.5,1.2,1,1.7,1.1
		c-0.4,3.7-1,4.8-2.8,4.8c-1.7,0-3-1.5-3.9-3.8c-1.4,1.2-2.8,2.2-4.4,3c-0.3-0.5-0.9-1.2-1.4-1.7c1.8-0.8,3.5-2,5.1-3.4
		c-0.5-1.8-0.9-3.9-1.2-6.2h-4.9v3.1l3.7-0.7l0.2,1.8c-1.3,0.3-2.6,0.6-3.8,0.9v4.4c0,1.2-0.3,1.8-1.1,2.1s-2,0.4-3.8,0.4
		c-0.1-0.6-0.5-1.5-0.8-2.1c1.3,0,2.6,0,3,0s0.5-0.1,0.5-0.5v-3.9c-1.6,0.3-3,0.6-4.2,0.9l-0.6-2c1.3-0.2,3-0.5,4.8-0.9v-3.5h-4.4
		v-1.9h4.4v-3c-1.3,0.2-2.6,0.4-3.8,0.5c-0.1-0.5-0.4-1.3-0.6-1.7c3.1-0.5,6.6-1.2,8.7-1.9l1.4,1.7c-1.1,0.4-2.3,0.7-3.6,0.9v3.5
		h4.7c-0.2-2-0.3-4-0.3-6.1h2.1c0,2.1,0.1,4.2,0.2,6.1h6.2v1.9h-6c0.2,1.7,0.5,3.1,0.8,4.5c1-1.1,1.8-2.3,2.5-3.6L663.7,204.4z
		 M662.6,199.8c-0.6-1-2-2.6-3.3-3.7l1.5-1.1c1.2,1.1,2.7,2.6,3.4,3.6L662.6,199.8z"/>
	<path class="st3" d="M540.8,231.4c-0.4,2-1.1,4-2,5.5c0.4,0.2,0.8,0.6,1.5,0.9c1.5,0.9,3.6,1,6.1,1c2.6,0,6.4-0.2,8.9-0.5
		c-0.3,0.6-0.6,1.6-0.6,2.2c-1.7,0.1-5.7,0.2-8.3,0.2c-2.8,0-4.7-0.2-6.4-1.1c-0.9-0.5-1.7-1.2-2.2-1.2s-1.3,1.4-1.9,2.7l-1.4-1.9
		c0.6-0.8,1.3-1.5,1.9-2l0,0c0.9-1.1,1.7-2.8,2.1-4.4h-3.1c0.6-1.3,1.3-3.1,2-4.8h-2.5v-1.8h5.2c-0.6,1.6-1.3,3.4-1.9,4.9h1.1
		l0.3-0.1L540.8,231.4z M537.6,225.2c-0.4-0.9-1.1-2.5-1.7-3.7l1.8-0.6c0.6,1.1,1.3,2.6,1.8,3.5L537.6,225.2z M554.6,225h-13.8v-1.6
		h6.2c-0.3-0.6-0.8-1.5-1.2-2.1l2-0.6c0.6,0.7,1.2,1.7,1.5,2.4l-1,0.4h6.4v1.5L554.6,225L554.6,225z M542.2,231.9h10.7v5.3h-10.7
		V231.9z M552.8,227.7h-10.3v-1.5h10.3V227.7z M542.5,229.1h10.3v1.5h-10.3V229.1z M544.2,235.8h6.8v-2.3h-6.8V235.8z"/>
	<path class="st3" d="M562.8,221.5c-0.5,1.4-1.1,2.9-1.7,4.2v15.4h-2v-11.9c-0.6,0.9-1.2,1.7-1.8,2.4c-0.2-0.5-0.7-1.6-1-2.2
		c1.9-2.1,3.6-5.3,4.6-8.5L562.8,221.5z M576.3,222.1v18.7h-1.9v-1.1h-9.1v1.3h-1.9v-18.9H576.3z M574.3,237.9v-14h-9.1v14H574.3z
		 M570.6,228.4v2.2h2.3v5.9h-6.2v-5.9h2.2v-2.2H566v-1.5h2.9v-2.4h1.6v2.4h3.1v1.5H570.6z M571.4,232h-3.1v2.9h3.1V232z"/>
	<path class="st3" d="M596,238.3c0,1.3-0.4,2-1.2,2.3c-0.9,0.4-2.4,0.4-4.7,0.4c-0.1-0.6-0.5-1.6-0.9-2.2c1.7,0.1,3.5,0.1,4,0
		c0.5,0,0.7-0.2,0.7-0.6v-3.9h-10c-0.6,2.5-1.7,4.9-3.8,6.7c-0.3-0.4-1.1-1.2-1.6-1.5c3.4-2.9,3.8-7.3,3.8-10.7v-6.9H596V238.3z
		 M593.9,232.4v-3.3h-9.5c0,1-0.1,2.1-0.2,3.3H593.9z M584.4,223.9v3.3h9.5v-3.3H584.4z"/>
	<path class="st3" d="M620.3,224.3c0,0,0,0.7,0,1c-0.3,9.9-0.6,13.3-1.5,14.4c-0.6,0.7-1.1,0.9-1.9,1c-0.8,0.1-2.1,0.1-3.3,0
		c0-0.6-0.3-1.4-0.7-2c1.4,0.1,2.7,0.1,3.2,0.1c0.4,0,0.7-0.1,0.9-0.4c0.7-0.7,1-4,1.3-12.3h-5.2c-0.6,1.4-1.3,2.7-2,3.7
		c-0.3-0.3-1.1-0.9-1.6-1.1v10.1h-6v1.7h-1.9v-16.1h2.5c0.3-1.1,0.6-2.5,0.8-3.6l2.2,0.4c-0.4,1.1-0.8,2.3-1.1,3.2h3.5v4.2
		c1.5-1.9,2.6-4.8,3.3-7.7l2,0.5c-0.3,1-0.5,2-0.9,3L620.3,224.3L620.3,224.3z M603.6,226.2v4.2h4.1v-4.2H603.6z M607.7,237v-4.9
		h-4.1v4.9H607.7z M615,235.3c-0.6-1.3-2-3.5-3.2-5.1l1.6-0.9c1.2,1.5,2.7,3.6,3.3,4.9L615,235.3z"/>
	<path class="st3" d="M636,238c-1.5,1.3-4,2.5-6.2,3c-0.4-0.7-1.3-1.7-1.9-2.3c2.2-0.3,4.6-0.9,5.9-1.7L636,238z M647.8,233.9v2.6
		h-8.4v4.9h-3.2v-4.9h-8.3v-2.6h8.3v-0.6H630V231h6.2v-0.6h-7.3V228h3.7c-0.2-0.4-0.4-0.9-0.6-1.3l1.5-0.3H628v-2.5h2.7
		c-0.3-0.8-0.8-1.7-1.2-2.5l2.8-0.9c0.6,0.9,1.3,2.2,1.6,3l-1,0.4h1.6v-3.4h3v3.4h1.1v-3.4h3v3.4h1.5l-0.7-0.2
		c0.5-0.9,1-2.2,1.2-3.1l3.4,0.8c-0.6,0.9-1.1,1.8-1.6,2.5h2.5v2.5H642l2.4,0.6c-0.4,0.4-0.8,0.7-1.1,1h3.7v2.4h-7.5v0.6h6.5v2.3
		h-6.5v0.6C639.5,233.9,647.8,233.9,647.8,233.9z M635.2,226.4c0.3,0.5,0.6,1,0.7,1.3l-1.3,0.3h5.9l-0.8-0.2c0.3-0.4,0.7-0.9,1-1.4
		C640.7,226.4,635.2,226.4,635.2,226.4z M642.2,236.9c1.6,0.7,4.1,1.8,5.5,2.5l-2.3,1.7c-1.2-0.7-3.6-1.9-5.3-2.7L642.2,236.9z"/>
	<path class="st3" d="M655.4,234.6c0-0.3-0.1-0.6-0.1-0.9c-3.7,0.5-4.5,0.7-5,1c-0.1-0.5-0.6-1.9-0.9-2.6c0.6-0.2,1.1-0.7,1.7-1.5
		c0.2-0.3,0.6-0.8,1.1-1.5c-1.3,0.2-1.8,0.3-2.1,0.4c-0.1-0.5-0.6-1.8-0.9-2.5c0.4-0.1,0.8-0.6,1.2-1.2c0.4-0.6,1.6-3.1,2.2-5.4
		l2.7,1.1c-0.6,1.7-1.6,3.5-2.5,5l1-0.1c0.5-1,1-2,1.5-3l2.5,1.5c-0.3,0.6-0.6,1.1-0.9,1.7h5.1v-0.5h-4v-1.9h4v-0.5h-4.5v-2h4.5
		v-1.2h3.1v1.2h4.2v2h-4.2v0.5h3.9v1.9h-3.9v0.5h5.1v2.3h-13.3v-2.1c-0.6,1-1.2,2-1.9,3l1.7-0.5c0.5,1.5,0.9,3.4,1.1,4.6
		L655.4,234.6z M652.4,235.6c-0.1,2.1-0.4,4.3-0.9,5.7c-0.5-0.3-1.6-0.6-2.2-0.7c0.5-1.3,0.7-3.4,0.8-5.3L652.4,235.6z M654.7,235
		c0.2,1.6,0.4,3.7,0.4,5.1l-2.1,0.4c0-1.4-0.1-3.5-0.3-5.2L654.7,235z M654.8,231.3c-0.1-0.4-0.2-0.8-0.3-1.2
		c-0.4,0.5-0.7,0.9-1.1,1.3L654.8,231.3z M656.8,234.6c0.4,1.1,0.8,2.6,1,3.6l-1.9,0.7c-0.2-1-0.6-2.5-0.9-3.7L656.8,234.6z
		 M666.6,237.7c1.3,0.7,2.9,1.6,3.8,2.2l-2.9,1.5c-0.8-0.6-2.3-1.6-3.5-2.4l1.8-1.3h-4.4l2,1.7c-1.6,0.7-3.9,1.5-5.4,1.9
		c-0.5-0.6-1.3-1.5-2-2.1c1.3-0.4,3-1,4.2-1.5h-2.4v-8.4h10.9v8.4C668.7,237.7,666.6,237.7,666.6,237.7z M660.9,231.7h5v-0.5h-5
		V231.7z M660.9,233.8h5v-0.5h-5V233.8z M660.9,235.9h5v-0.5h-5V235.9z"/>
	<path class="st3" d="M690.1,238.7c0.1,0,0.2,0,0.3-0.1s0.1-0.3,0.2-0.5c0-0.4,0.1-1.2,0-2.1c0.4,0.3,1,0.7,1.5,0.8
		c0,1.1-0.1,2.4-0.2,2.9c-0.1,0.5-0.3,0.8-0.6,1.1c-0.3,0.2-0.7,0.4-1.1,0.4h-1c-0.6,0-1.1-0.2-1.4-0.5c-0.4-0.4-0.5-0.8-0.5-2.1
		v-1.7c-0.8,1.6-1.9,3.2-3.3,4.6c-0.5-0.4-1.5-1.2-2.2-1.5c1.1-1,2-2.2,2.7-3.3l-1.3,0.8c-0.1-0.2-0.2-0.5-0.4-0.8
		c-3.4,2-4,2.6-4.4,3c-0.2-0.6-1-1.6-1.4-2c0.5-0.4,1.1-1.3,1.1-2.4V233l-1.1,1.8c-0.2-0.6-0.4-1.4-0.7-2.2v8.9h-2.8v-5.9
		c-0.3,0.9-0.7,1.6-1,2.2c-0.3-0.9-0.9-2-1.4-2.8c1-1.8,1.9-4.6,2.4-7v-0.3h-1.9v-2.9h1.9v-4.3h2.8v4.3h1.6v2.9h-1.6l0,0
		c0.3,0.5,1.2,2.2,1.8,3.3v-9.5h5.7v10.2h-3.3v3.5l1.3-0.7c-0.3-0.6-0.6-1.1-0.9-1.6l1.9-1c0.7,1.2,1.6,2.7,2.1,3.9
		c0.7-1.4,1.3-2.9,1.7-4.3h-2.7c0.4-1.9,0.7-4.8,0.9-7.3h-0.7v-2.7h7.7v2.7H690c0,1.4-0.2,3-0.4,4.7h2.4v2.5h-2.9
		c-0.1,0.4-0.2,0.7-0.3,1h0.6v5.8c0,0.1,0,0.2,0,0.3s0.2,0.1,0.3,0.1L690.1,238.7L690.1,238.7z M680.4,224v1.5h1.1V224H680.4z
		 M681.5,229.2v-1.5h-1.1v1.5H681.5z M687.2,228.9c0.3-1.7,0.4-3.3,0.5-4.7h-0.4c-0.2,1.5-0.4,3.2-0.7,4.7H687.2z"/>
	<path class="st3" d="M697.4,231.3c-0.8-0.8-2.7-1.8-4.1-2.4l1.7-2.4c1.4,0.5,3.3,1.4,4.2,2.2L697.4,231.3z M700.9,233.9
		c-1.3,2.5-2.7,5-4.1,7.2l-2.7-2c1.3-1.7,3-4.5,4.5-7.2L700.9,233.9z M698.6,225.3c-0.8-0.8-2.5-1.8-3.9-2.4l1.7-2.4
		c1.3,0.5,3.1,1.4,4,2.1L698.6,225.3z M711.2,238.4c0.3,0,0.4-0.5,0.5-3c0.6,0.5,2,1,2.8,1.3c-0.3,3.6-1,4.6-2.9,4.6h-1.5
		c-2.4,0-2.9-1-2.9-3.7v-6.4H706c-0.1,5-0.7,8.4-5.1,10.3c-0.3-0.8-1.2-2-1.9-2.6c3.5-1.5,3.7-3.8,3.8-7.7h-1.6v-9.7H713v9.7h-2.7
		v6.3c0,0.8,0,0.9,0.3,0.9L711.2,238.4L711.2,238.4z M704.4,228.2h5.4v-3.8h-5.4V228.2z"/>
</g>
<g>
	<path class="st3" d="M459,87c-0.4,2-1.1,4-2,5.5c0.4,0.2,0.8,0.5,1.5,0.9c1.5,0.9,3.6,1,6.1,1c2.6,0,6.4-0.2,8.9-0.5
		c-0.3,0.6-0.6,1.6-0.6,2.2c-1.7,0.1-5.7,0.2-8.3,0.2c-2.8,0-4.7-0.2-6.4-1.1c-0.9-0.5-1.7-1.2-2.2-1.2s-1.3,1.4-1.9,2.7l-1.4-1.9
		c0.6-0.8,1.3-1.5,1.9-2l0,0c0.9-1.1,1.7-2.8,2.1-4.4h-3.1c0.6-1.3,1.3-3.1,2-4.8h-2.5v-1.8h5.2c-0.6,1.6-1.3,3.4-1.9,4.9h1.1
		l0.3-0.1L459,87z M455.8,80.7c-0.4-0.9-1.1-2.5-1.7-3.7l1.8-0.6c0.6,1.1,1.3,2.6,1.8,3.5L455.8,80.7z M472.8,80.5H459v-1.6h6.2
		c-0.3-0.6-0.8-1.5-1.2-2.1l2-0.6c0.6,0.7,1.2,1.7,1.5,2.4l-1,0.4h6.4v1.5C472.9,80.5,472.8,80.5,472.8,80.5z M460.4,87.5h10.7v5.3
		h-10.7V87.5z M470.9,83.3h-10.3v-1.5h10.3V83.3z M460.7,84.6H471v1.5h-10.3V84.6z M462.3,91.3h6.8V89h-6.8V91.3z"/>
	<path class="st3" d="M478.8,86.3c-0.8-0.7-2.6-1.7-3.9-2.3l1.1-1.5c1.3,0.6,3.1,1.5,3.9,2.1L478.8,86.3z M480.5,89.4
		c-1,2.3-2.2,4.9-3.3,7l-1.8-1.2c1-1.7,2.5-4.5,3.6-7L480.5,89.4z M479.9,80.5c-0.8-0.7-2.5-1.8-3.8-2.4l1.2-1.5
		c1.2,0.6,3,1.6,3.8,2.3L479.9,80.5z M493.6,85.4c-0.7,2.9-2,5.1-3.5,7c1.5,1.1,3.2,2,5.1,2.6c-0.5,0.4-1.1,1.2-1.3,1.8
		c-2-0.7-3.7-1.7-5.2-2.9c-1.5,1.3-3.2,2.3-5,2.9c-0.3-0.5-0.9-1.3-1.3-1.7c1.8-0.6,3.5-1.5,4.9-2.6c-1.4-1.6-2.5-3.5-3.3-5.7h-0.2
		c-0.1,3.2-0.7,7.2-2.7,9.9c-0.4-0.3-1.2-0.8-1.7-1c2.3-3.1,2.5-7.4,2.5-10.6v-5.5h5.2v-3h2v3h4.3l0.4-0.1l1.5,0.4
		c-0.5,1.6-1.2,3.4-1.8,4.5l-1.7-0.5c0.3-0.6,0.6-1.5,0.9-2.4H489V85h3l0.4-0.1L493.6,85.4z M483.8,81.4v3.5h3.2v-3.5H483.8z
		 M485.9,86.7c0.7,1.6,1.6,3.1,2.7,4.3c1.1-1.2,1.9-2.6,2.5-4.3H485.9z"/>
	<path class="st3" d="M502.9,77c-0.5,1.4-1,2.8-1.7,4.1v15.4h-2V84.8c-0.5,0.9-1.2,1.7-1.8,2.4c-0.2-0.5-0.7-1.6-1-2.2
		c1.8-2.1,3.5-5.4,4.5-8.7L502.9,77z M511.1,94.1c0.7,0.1,1.4,0.1,2.1,0.1s3.2,0,4.1,0c-0.3,0.5-0.5,1.4-0.6,1.9H513
		c-3.3,0-5.8-0.7-7.4-3.5c-0.5,1.6-1.3,2.9-2.3,4c-0.3-0.3-1.2-0.9-1.6-1.2c1.9-1.8,2.8-4.9,3.1-8.5l2,0.2c-0.1,1-0.3,2-0.4,2.9
		c0.6,1.8,1.6,2.8,2.8,3.4V85h-4.6v-7.6h11.2V85h-4.6v3.1h4.9V90h-4.9L511.1,94.1L511.1,94.1z M506.4,83.2h7.2v-4h-7.2L506.4,83.2
		L506.4,83.2z"/>
	<path class="st3" d="M527,94.2c-2.7,0.6-5.5,1.3-7.7,1.7l-0.5-1.8c0.9-0.2,2.2-0.4,3.5-0.6v-6h-3.2v-1.7h3.2v-2.1h-1.9V83
		c-0.3,0.3-0.6,0.5-0.9,0.8c-0.1-0.5-0.6-1.6-1-2.1c1.6-1.3,3.2-3.3,4.2-5.3l1.8,0.6c-0.1,0.2-0.2,0.5-0.4,0.8
		c1.3,1.1,2.7,2.3,3.5,3.1l-1.1,1.6c-0.7-0.8-2-2-3.2-3.1c-0.5,0.9-1.2,1.8-1.9,2.6h4.5v1.7h-1.8v2.1h2.6v1.7h-2.6v5.7l2.8-0.5
		L527,94.2z M520.7,88.4c0.4,1.3,0.7,2.9,0.9,3.9l-1.5,0.4c-0.1-1.1-0.5-2.7-0.8-4L520.7,88.4z M524.6,92.1c0.3-1.1,0.8-2.7,1-3.9
		l1.6,0.4c-0.4,1.3-0.9,2.9-1.3,3.8L524.6,92.1z M538.2,94.3c0,1-0.2,1.6-0.9,1.9s-1.8,0.4-3.4,0.4c-0.1-0.5-0.3-1.4-0.6-1.9
		c1.1,0.1,2.2,0.1,2.6,0c0.3,0,0.4-0.1,0.4-0.4v-3.4c-2.1,0.5-4.1,1.1-5.8,1.5l-0.6-1.6c-0.1,2.1-0.4,4.3-1.4,6
		c-0.3-0.4-1.1-0.9-1.6-1.1c1.1-1.9,1.2-4.6,1.2-6.7v-6.3h4.1v-6.1h2v6.1h4.1L538.2,94.3L538.2,94.3z M529.5,82
		c-0.3-1.1-1.1-2.8-2-4.1l1.7-0.8c0.9,1.2,1.8,2.9,2.1,4L529.5,82z M529.9,88.9c0,0.5,0,1.1,0,1.7c1.7-0.3,4-0.9,6.4-1.4v-4.8h-6.4
		V88.9z M531,85.6c1.6,0.3,3.7,1,4.8,1.6l-0.9,1.5c-1.1-0.6-3.1-1.4-4.8-1.8L531,85.6z M538.9,77.7c-0.7,1.5-1.5,3-2.3,4.1l-1.7-0.7
		c0.7-1.1,1.6-2.9,2.1-4.2L538.9,77.7z"/>
	<path class="st3" d="M545,86.5c-0.9-0.6-2.7-1.7-4-2.4l1.1-1.5c1.3,0.6,3.1,1.6,4,2.2L545,86.5z M541.4,95c1.2-1.6,2.9-4.5,4.1-7
		l1.5,1.4c-1.1,2.3-2.6,4.9-3.9,7L541.4,95z M546.1,80.6c-0.9-0.6-2.7-1.7-4-2.4l1.1-1.5c1.3,0.6,3.1,1.6,4.1,2.2L546.1,80.6z
		 M555.2,84.8v3.3h4.5v8.5h-1.9v-0.8h-7.3v0.9h-1.9V88h4.6v-3.3h-6.1v-2h6.1v-3.1c-1.5,0.2-3.1,0.4-4.6,0.5
		c-0.1-0.5-0.4-1.3-0.6-1.7c3.8-0.4,8-1.1,10.5-2l1.6,1.6c-1.4,0.5-3.1,0.9-5,1.3v3.5h5.8v2H555.2z M557.8,89.9h-7.3v4h7.3V89.9z"/>
	<path class="st3" d="M582.7,81.4c0,0,0,0.7,0,0.9c-0.2,9.1-0.4,12.2-1.1,13.2c-0.4,0.7-0.9,0.8-1.6,0.9c-0.7,0.1-1.7,0.1-2.7,0
		c0-0.6-0.3-1.4-0.6-1.9c1,0.1,1.9,0.1,2.3,0.1c0.4,0,0.6-0.1,0.8-0.4c0.5-0.6,0.7-3.4,0.9-11H578c-0.3,5.9-1.3,10.5-5.1,13.4
		c-0.3-0.5-1-1.2-1.5-1.5c0.1-0.1,0.3-0.2,0.4-0.3c-3.2,0.4-6.3,0.7-8.7,0.9l-0.3-1.7c1.3-0.1,2.9-0.2,4.6-0.4v-1.7h-4v-1.5h4v-1.1
		h-3.9v-6.6h3.9v-1.1H563v-1.5h4.5v-1.2c-1.3,0.1-2.7,0.2-3.9,0.2c-0.1-0.4-0.3-1.1-0.5-1.5c3.3-0.2,7.2-0.6,9.4-1.1l1,1.5
		c-1.2,0.2-2.6,0.5-4.1,0.6V80h4.4v1.3h2.3c0-1.5,0-3.1,0-4.7h2c0,1.6,0,3.2,0,4.7L582.7,81.4L582.7,81.4z M565.3,85.5h2.3v-1.3
		h-2.3V85.5z M567.5,88.1v-1.3h-2.3v1.3H567.5z M569.4,93.6c1.4-0.1,2.8-0.3,4.2-0.4c1.8-2.5,2.4-5.8,2.5-9.8h-2.3v-1.7h-4.4v1.1
		h4.1v6.6h-4.1v1.1h4.1V92h-4.1V93.6z M571.8,85.5v-1.3h-2.4v1.3H571.8z M569.4,86.8v1.3h2.4v-1.3H569.4z"/>
	<path class="st3" d="M604.5,79.8c0,0,0,0.7,0,1c-0.3,9.9-0.6,13.3-1.5,14.4c-0.5,0.7-1.1,0.9-1.9,1c-0.8,0.1-2.1,0.1-3.3,0
		c0-0.6-0.3-1.4-0.7-2c1.4,0.1,2.7,0.1,3.2,0.1c0.4,0,0.7-0.1,0.9-0.4c0.7-0.7,1-4,1.3-12.3h-5.2c-0.6,1.4-1.3,2.7-2,3.7
		c-0.3-0.3-1.1-0.9-1.6-1.1v10.1h-6V96h-1.9V79.9h2.5c0.3-1.1,0.6-2.5,0.8-3.6l2.2,0.4c-0.4,1.1-0.8,2.3-1.1,3.2h3.5v4.2
		c1.5-1.9,2.6-4.8,3.3-7.7l2,0.5c-0.3,1-0.6,2-0.9,3L604.5,79.8L604.5,79.8z M587.8,81.7v4.2h4.1v-4.2H587.8z M591.9,92.6v-4.9h-4.1
		v4.9H591.9z M599.2,90.8c-0.6-1.3-2-3.5-3.2-5.1l1.6-0.9c1.2,1.5,2.7,3.6,3.3,4.9L599.2,90.8z"/>
	<path class="st3" d="M625.7,83.9c-0.9,2.8-2.2,5.3-3.8,7.4c0.7,1.9,1.6,3,2.5,3c0.6,0,0.8-1.1,1-4c0.5,0.5,1.2,0.9,1.8,1.1
		c-0.3,3.9-1.1,4.9-2.9,4.9c-1.6,0-2.9-1.2-3.9-3.3c-1.3,1.3-2.6,2.4-4.2,3.4c-0.3-0.4-1-1.3-1.5-1.7c1.8-1,3.5-2.3,4.8-3.9
		c-0.8-2.5-1.3-5.6-1.6-9.1h-7v2.7h5.5v0.8c-0.1,4.8-0.2,6.7-0.7,7.3c-0.4,0.5-0.8,0.6-1.4,0.7c-0.5,0.1-1.5,0.1-2.6,0
		c0-0.6-0.2-1.4-0.5-1.9c0.9,0.1,1.8,0.1,2.1,0.1s0.5-0.1,0.7-0.3c0.2-0.3,0.4-1.6,0.4-4.9h-3.5c0,3.1-0.4,7.5-2.3,10.4
		c-0.4-0.4-1.3-1.1-1.7-1.4c1.8-2.6,1.9-6.4,1.9-9.3v-6.2h9c-0.1-1.1-0.1-2.3-0.1-3.5h2.2c0,1.2,0,2.4,0.1,3.5h4.2
		c-0.9-0.7-2.3-1.7-3.5-2.3l1.2-1.3c1.3,0.7,2.9,1.7,3.8,2.4l-1.1,1.1h2.2v2H620c0.2,2.6,0.6,5,1.1,7c1.1-1.6,1.9-3.5,2.5-5.5
		L625.7,83.9z"/>
	<path class="st3" d="M633.4,82.3c-0.9,1.9-2.1,4.1-3.3,5.5c-0.3-0.4-1-1-1.4-1.3c1.1-1.3,2.2-3.1,2.9-4.8L633.4,82.3z M636.9,94.4
		c-0.5-0.9-1.2-1.9-2.1-3.1c-1.2,2-2.7,3.5-4.5,4.8c-0.3-0.4-1-1.2-1.4-1.5c1.9-1.2,3.5-2.8,4.7-4.9c-0.8-0.9-1.7-1.9-2.5-2.7
		l1.5-1.1c0.6,0.6,1.2,1.3,1.9,1.9c0.4-0.9,0.7-1.8,0.9-2.8l1.9,0.4c-0.4,1.4-0.9,2.8-1.5,3.9c1.1,1.3,2.1,2.6,2.7,3.7L636.9,94.4z
		 M639.4,81.4h-10.1v-1.8h4.5c-0.3-0.7-0.8-1.7-1.4-2.5l1.7-0.6c0.6,0.8,1.3,1.9,1.6,2.6l-1.3,0.5h5V81.4z M647.8,82.2
		c-0.5,3.5-1.4,6.4-2.7,8.7c1.1,1.7,2.5,3.1,4.2,4c-0.5,0.4-1.1,1.1-1.4,1.7c-1.6-0.9-2.9-2.3-4-3.9c-1.3,1.7-2.9,3-4.9,4
		c-0.2-0.4-1-1.2-1.4-1.5c2.3-1,4-2.4,5.2-4.2c-0.7-1.4-1.3-3-1.8-4.7c-0.4,0.6-0.7,1.2-1.1,1.7c-0.3-0.4-0.9-1.2-1.3-1.6
		c0.2-0.2,0.3-0.4,0.5-0.7l-1.3,0.8c-0.4-1.1-1.5-2.8-2.5-4.1l1.5-0.8c1,1.1,2,2.7,2.5,3.8c1.4-2.4,2.3-5.6,2.8-9l1.9,0.3
		c-0.2,1.2-0.5,2.5-0.7,3.6h5.7v1.9C649,82.2,647.8,82.2,647.8,82.2z M642.7,82.2c-0.2,0.5-0.3,1-0.5,1.5c0.4,1.9,1,3.7,1.8,5.3
		c0.9-1.9,1.5-4.1,1.8-6.8H642.7z"/>
	<path class="st3" d="M660.2,80.2h0.9v1.9l-0.9,0.1c0,2.6-0.3,6-2.2,9.1c1.1,0.9,2,1.9,2.7,2.6l-1.5,1.6c-0.6-0.7-1.5-1.6-2.4-2.5
		c-1.1,1.3-2.6,2.6-4.6,3.7c-0.3-0.5-1-1.2-1.5-1.6c2-1.1,3.4-2.3,4.5-3.6c-1.3-1.1-2.6-2.2-3.7-3.1c0.5-1.5,0.9-3.6,1.4-5.8l-2,0.1
		l-0.2-2l2.6-0.1c0.2-1.4,0.4-2.8,0.5-4l2.2,0.1c-0.1,1.2-0.3,2.5-0.5,3.8l2.8-0.2v-1.1h2L660.2,80.2L660.2,80.2z M658.2,82.3
		c-1.1,0.1-2.1,0.1-3.1,0.2c-0.4,1.9-0.8,3.8-1.2,5.3c0.8,0.6,1.7,1.3,2.5,2C657.9,87.2,658.2,84.4,658.2,82.3z M670,78.7v17h-2
		v-1.3h-4.2V96h-1.9V78.7H670z M667.9,92.5V80.7h-4.2v11.8H667.9z"/>
	<path class="st3" d="M679.7,77c-0.5,1.5-1.2,2.9-1.9,4.3v15.3h-2v-12c-0.6,0.8-1.2,1.6-1.8,2.3c-0.2-0.5-0.8-1.6-1.1-2.1
		c2-2,3.8-5.2,4.9-8.3L679.7,77z M693.2,80.4h-1.5V94c0,1.3-0.3,1.9-1.2,2.2s-2.3,0.4-4.4,0.4c-0.1-0.6-0.4-1.5-0.7-2.1
		c1.6,0.1,3.2,0,3.6,0c0.5,0,0.6-0.1,0.6-0.6V80.3h-10v-2h13.5v2.1H693.2z M682.1,90.9v1.5h-1.9v-9.2h7v7.7H682.1z M682.1,85v4.1
		h3.2V85H682.1z"/>
	<path class="st3" d="M705.1,82.6c0-1.4-1.1-2.4-3.1-2.4c-1.4,0-2.8,0.6-3.9,1.9l-1.5-1.3c1.4-1.6,3.2-2.6,5.6-2.6
		c3.1,0,5.3,1.5,5.3,4.2c0,3.3-5.1,3.8-4.6,7h-2.2C700.1,85.8,705.1,84.9,705.1,82.6z M701.8,91.2c1.1,0,2,0.7,2,1.9s-0.9,1.9-2,1.9
		s-2-0.8-2-1.9S700.7,91.2,701.8,91.2z"/>
	<path class="st3" d="M459.7,116.2c-0.1-0.3-0.1-0.7-0.2-1.2c-4.7,0.7-5.4,0.9-5.9,1.1c-0.1-0.4-0.4-1.4-0.6-1.9
		c0.5-0.1,1-0.6,1.7-1.4c0.3-0.4,0.9-1.1,1.6-2.2c-2,0.2-2.5,0.4-2.8,0.5c-0.1-0.4-0.4-1.3-0.6-1.8c0.4-0.1,0.8-0.5,1.2-1.2
		c0.5-0.7,2-3.1,2.9-5.5l1.9,0.8c-0.9,2-2.1,4-3.3,5.6l1.9-0.2c0.6-0.9,1.1-1.9,1.6-2.9l1.8,1.1c-1.3,2.4-3.1,4.8-4.8,6.7l3-0.4
		c-0.2-0.7-0.4-1.3-0.7-1.9l1.5-0.4c0.6,1.5,1.2,3.4,1.5,4.5L459.7,116.2z M455.6,117.3c-0.2,2-0.6,4.1-1.1,5.5
		c-0.4-0.2-1.2-0.5-1.7-0.6c0.5-1.3,0.8-3.3,1-5.2L455.6,117.3z M457.9,116.9c0.3,1.5,0.5,3.5,0.6,4.8l-1.7,0.4
		c0-1.3-0.3-3.3-0.5-4.9L457.9,116.9z M460.1,116.3c0.5,1.3,1,3,1.2,4.1l-1.6,0.5c-0.2-1.1-0.7-2.8-1.1-4.1L460.1,116.3z
		 M468.2,103.4c-0.1,0.2-0.2,0.5-0.3,0.7c1.4,2.3,3.7,4.8,5.8,6.1c-0.5,0.4-1.2,1.1-1.5,1.7c-0.5-0.4-1.1-0.9-1.6-1.5v1.4h-7.2v-1.1
		c-0.5,0.5-1.1,1-1.7,1.4c-0.3-0.4-1-1.1-1.5-1.5c2.8-1.8,5.1-4.8,6.2-7.7L468.2,103.4z M462.2,114h9.6v9.1h-2.1V122h-5.5v1.1h-2
		V114z M470,109.9c-1.1-1.2-2.2-2.6-3-4c-0.8,1.4-1.8,2.8-2.9,4H470z M464.2,115.8v4.4h5.5v-4.4H464.2z"/>
	<path class="st3" d="M493.9,112.7c-1,1.8-2.2,3.5-3.7,5c0.7,2,1.6,3.3,2.5,3.3c0.5,0,0.8-1.1,0.9-3.8c0.5,0.5,1.2,1,1.7,1.1
		c-0.4,3.7-1,4.8-2.8,4.8c-1.7,0-3-1.5-3.9-3.8c-1.4,1.2-2.8,2.2-4.4,3c-0.3-0.5-0.9-1.2-1.4-1.7c1.8-0.8,3.5-2,5.1-3.4
		c-0.5-1.8-0.9-3.9-1.2-6.2h-4.9v3.1l3.7-0.7l0.2,1.8c-1.3,0.3-2.6,0.6-3.8,0.9v4.4c0,1.2-0.3,1.8-1.1,2.1c-0.8,0.3-2,0.4-3.8,0.4
		c-0.1-0.6-0.5-1.5-0.8-2.1c1.3,0,2.6,0,3,0s0.5-0.1,0.5-0.5v-3.9c-1.6,0.3-3,0.6-4.2,0.9l-0.6-2c1.3-0.2,3-0.5,4.8-0.9V111h-4.4
		v-1.9h4.4v-3c-1.3,0.2-2.6,0.4-3.8,0.5c-0.1-0.5-0.4-1.3-0.6-1.7c3.1-0.5,6.6-1.2,8.7-1.9l1.4,1.7c-1.1,0.4-2.3,0.7-3.6,0.9v3.5
		h4.7c-0.2-2-0.3-4-0.3-6.1h2.1c0,2.1,0.1,4.2,0.2,6.1h6.2v1.9h-6c0.2,1.7,0.5,3.1,0.8,4.5c1-1.1,1.8-2.3,2.5-3.6L493.9,112.7z
		 M492.8,108.2c-0.6-1-2-2.6-3.3-3.7l1.5-1.1c1.2,1.1,2.7,2.6,3.4,3.6L492.8,108.2z"/>
	<path class="st3" d="M517.1,111.6v2.2h-20v-2.2H517.1z"/>
	<path class="st3" d="M525.6,103.5c-0.6,1.5-1.3,3.1-2.2,4.6V123h-2v-11.8c-0.6,0.8-1.2,1.6-1.8,2.2c-0.2-0.5-0.8-1.6-1.1-2.1
		c2.1-2,4-5.3,5.2-8.4L525.6,103.5z M536.7,111.7c0,0,0,0.6,0,0.9c-0.3,6.3-0.5,8.6-1.2,9.4c-0.4,0.5-0.8,0.7-1.4,0.8
		c-0.6,0.1-1.5,0.1-2.5,0c0-0.5-0.2-1.3-0.6-1.9c0.9,0.1,1.7,0.1,2,0.1s0.5,0,0.7-0.3c0.4-0.5,0.7-2.3,0.9-7.1h-3.3
		c-0.6,4.5-2.1,7.5-5.3,9.4c-0.3-0.4-1-1.2-1.4-1.5c2.9-1.5,4.2-4,4.6-7.8H527v-1.9L536.7,111.7L536.7,111.7z M530.7,104.4
		c-0.9,3.3-2.6,6.2-4.7,8.1c-0.2-0.4-0.9-1.4-1.3-1.8c1.8-1.6,3.2-4.1,4-6.8L530.7,104.4z M535.2,103.6c0.6,2.8,2.1,5.5,4,6.9
		c-0.4,0.5-1,1.5-1.3,2.1c-1.9-1.7-3.4-4.4-4.2-7.1h-2.3v-2L535.2,103.6L535.2,103.6z"/>
	<path class="st3" d="M561.7,108v2h4v2.9h-10.9V110h3.7v-2h-4.2v-0.4c-0.8,1.3-1.7,2.7-2.8,4l1.8-0.6c0.5,1.5,1.1,3.4,1.3,4.6
		l-2.4,0.9c0-0.3-0.1-0.6-0.2-0.9c-4.2,0.6-5,0.8-5.6,1.1c-0.1-0.6-0.6-2-1-2.8c0.6-0.1,1.1-0.6,1.8-1.4c0.2-0.3,0.7-0.8,1.2-1.5
		c-1.4,0.2-1.9,0.3-2.2,0.5c-0.2-0.6-0.6-1.9-0.9-2.7c0.5-0.1,0.8-0.5,1.3-1.2c0.5-0.6,1.8-3,2.6-5.3l2.8,1.2
		c-0.8,1.7-1.8,3.5-2.9,5l1.1-0.1c0.5-0.9,1-1.8,1.5-2.7l2.4,1.6V105h4.2v-2.6h3.3v2.6h4.4v2.9L561.7,108L561.7,108L561.7,108z
		 M548.8,117.6c-0.1,2-0.4,4.1-0.9,5.4c-0.6-0.3-1.8-0.7-2.4-0.8c0.5-1.3,0.7-3.2,0.8-5L548.8,117.6z M551.1,117.1
		c0.3,1.6,0.5,3.6,0.6,5l-2.4,0.5c0-1.4-0.3-3.5-0.5-5L551.1,117.1z M551.4,113.2c-0.1-0.4-0.2-0.8-0.4-1.2
		c-0.4,0.5-0.7,0.9-1.1,1.3L551.4,113.2z M553.4,116.4c0.5,1.4,1,3.1,1.2,4.3l-2.2,0.8c-0.2-1.2-0.7-3-1.1-4.4L553.4,116.4z
		 M555.1,114.2h10v9H562v-0.9h-3.9v0.9h-3V114.2z M558.1,117.1v2.4h3.9v-2.4H558.1z"/>
	<path class="st3" d="M583.9,118.7c1.5,0.8,3.3,1.8,4.2,2.6l-2.5,2.2c-1.1-1-3.6-2.6-5.4-3.6l1.5-1.3h-2.2v4.7h-3.2v-4.7h-3.1
		l2.4,0.8c-1.3,1.5-3.4,2.9-5.2,3.7c-0.7-0.6-2-1.6-2.7-2.1c1.7-0.5,3.4-1.4,4.4-2.4h-4.2V116h8.4v-1.3c-2,0.4-4.5,0.7-7.4,0.8
		c-0.2-0.9-0.6-1.9-1.1-2.6c2.2,0,4.2-0.1,5.8-0.4c-1-0.2-2-0.4-3.1-0.5c0.5-0.5,1.1-1,1.6-1.6H568v-2.5h6.2
		c0.4-0.5,0.8-1.1,1.1-1.6h-4v0.9h-2.9v-3.5h7.5l-0.3-0.7l3.5-0.7c0.2,0.4,0.5,0.9,0.7,1.4h7.7v3.5h-2.9h0.2
		c-0.1,0.2-0.2,0.4-0.2,0.7h3.2v2.5h-4.4c-0.4,0.6-0.8,1.1-1.3,1.5c2.3,0.5,4.3,1.1,5.9,1.7l-3,2c-1.5-0.6-3.5-1.3-5.8-1.8
		c-0.8,0.3-1.6,0.6-2.5,0.8h2.8v1.3h8.6v2.6h-4.2L583.9,118.7L583.9,118.7z M575.3,110.6c1.1,0.2,2.2,0.4,3.2,0.6
		c0.4-0.2,0.7-0.4,1-0.7h-4.1L575.3,110.6z M578.7,106.8c-0.3,0.4-0.6,0.8-1,1.3h3.6c0.2-0.4,0.3-0.8,0.5-1.3l2.7,0.5v-0.9h-7
		L578.7,106.8z"/>
	<path class="st3" d="M596.3,108h3.3v2.7h-2l1.3,0.3c-0.3,0.7-0.6,1.3-0.9,1.9h1.2v2.7h-2.9v1.4h3.3v2.7h-3.3v3.7h-2.9v-3.7h-3.7
		V117h3.7v-1.4h-3.1v-2.7h1.3c-0.2-0.6-0.4-1.3-0.7-1.9l1.1-0.3h-2.3V108h3.7v-1.1h-3v-2.6h3v-1.7h2.9v1.7h2.8v2.6h-2.8L596.3,108
		L596.3,108z M595.4,112.9c0.3-0.7,0.6-1.5,0.8-2.2h-2.8c0.3,0.7,0.6,1.4,0.7,2l-0.9,0.3h2.2V112.9z M610,111.6
		c-0.4,2.6-1.1,5-2.1,7c0.8,0.9,1.7,1.6,2.8,2.1c-0.7,0.6-1.6,1.7-2.1,2.5c-0.9-0.5-1.7-1.2-2.4-2c-0.7,0.8-1.4,1.6-2.2,2.2
		c-0.3-0.4-0.7-0.9-1.2-1.4v1.3h-2.9v-20h9.4v4.1c0,1.3-0.3,2.1-1.2,2.5s-2.2,0.4-3.8,0.4c-0.1-0.8-0.5-2-0.9-2.7c0.9,0,2.2,0,2.5,0
		s0.4-0.1,0.4-0.3V106h-3.6v4.9h4.7l0.5-0.1L610,111.6z M602.9,120.5c0.6-0.5,1.1-1.1,1.6-1.8c-0.6-1.1-1.1-2.2-1.6-3.4V120.5z
		 M604.9,113.5c0.3,0.8,0.7,1.6,1.1,2.4c0.3-0.8,0.6-1.6,0.7-2.4H604.9z"/>
	<path class="st3" d="M631.7,110.1v3h-19.5v-3h2.2c-0.7-0.5-1.9-1.1-2.6-1.5c1.6-1.4,2.9-3.8,3.7-6.1l3.2,0.8
		c-0.2,0.6-0.5,1.3-0.7,1.9h2.9v-2.7h3.4v2.7h6.2v2.9h-6.2v2L631.7,110.1L631.7,110.1z M614.6,114.3h15.2v9h-3.5v-0.9h-8.5v1h-3.3
		L614.6,114.3L614.6,114.3z M616.4,108.1c-0.5,0.7-1,1.4-1.5,2h5.9v-2H616.4z M617.9,117.2v2.3h8.5v-2.3H617.9z"/>
</g>
<g>
	<path class="st3" d="M90.2,185h-8.8v6h-2.2v-6h-8.6v-2h8.6v-3.1H72v-2h7.3v-7h2.2v7H89v2h-7.6v3.1h8.8C90.2,183,90.2,185,90.2,185z
		 M74.9,177c-0.4-1.3-1.4-3.4-2.4-4.9l1.9-0.7c1,1.5,2.1,3.5,2.5,4.8L74.9,177z M88.4,172c-0.9,1.8-2,3.7-2.8,4.9l-1.8-0.7
		c0.9-1.3,1.9-3.4,2.5-5L88.4,172z"/>
	<path class="st3" d="M98,176.6c-0.7,3.2-2,7.2-3.9,9.6c-0.5-0.4-1.4-0.9-2-1.1c1.8-2.3,3-6.1,3.5-9L98,176.6z M103.6,171.1v17.2
		c0,1.4-0.4,2-1.2,2.3c-0.9,0.3-2.3,0.4-4.4,0.4c-0.1-0.6-0.5-1.5-0.8-2.1c1.5,0.1,3.1,0.1,3.6,0c0.5,0,0.6-0.2,0.6-0.6v-17.2
		L103.6,171.1L103.6,171.1z M108.6,176c1.9,3.1,3.7,7.1,4.2,9.7l-2.2,0.9c-0.5-2.6-2.2-6.7-4-9.9L108.6,176z"/>
	<path class="st3" d="M121.5,186.7h-4.6v1.9H115v-16.4h6.5V186.7z M116.9,174v4.4h2.7V174H116.9z M119.6,184.9v-4.6h-2.7v4.6H119.6z
		 M129.1,175.1v2.5h4.6v1.8H132v2.1h2.4v1.8H132v5.4c0,1.1-0.2,1.6-1,1.9c-0.8,0.3-1.9,0.4-3.6,0.4c-0.1-0.5-0.4-1.4-0.7-1.9
		c1.2,0,2.4,0,2.8,0s0.5-0.1,0.5-0.4v-5.4h-8v-1.8h8v-2.1h-7.2v-1.8h4.4v-2.5H122v-1.8h5.2v-2.5h2v2.5h5.3v1.8H129.1z M124.8,183.9
		c1,1.1,2.2,2.6,2.8,3.6l-1.8,1.1c-0.5-1-1.7-2.6-2.6-3.8L124.8,183.9z"/>
	<path class="st3" d="M142.9,176c-0.5,1-1.1,2-1.8,3v12.1h-1.9v-9.7c-0.6,0.6-1.2,1.2-1.8,1.7c-0.2-0.4-0.8-1.4-1.1-1.8
		c1.8-1.4,3.7-3.7,4.9-5.9L142.9,176z M142.4,171.5c-1.2,1.9-3.2,4-5,5.3c-0.2-0.4-0.7-1.1-1.1-1.5c1.6-1.1,3.3-3,4.2-4.5
		L142.4,171.5z M154.6,182.6c-0.9,2.1-2.2,3.7-3.9,5c1.7,0.8,3.5,1.3,5.5,1.7c-0.4,0.4-1,1.3-1.2,1.8c-2.3-0.5-4.3-1.2-6.1-2.3
		c-1.9,1.1-4,1.8-6.2,2.3c-0.2-0.5-0.6-1.3-1-1.7c1.9-0.4,3.8-0.9,5.4-1.7c-0.7-0.5-1.4-1.2-2-1.8c-0.5,0.5-1,0.9-1.6,1.3
		c-0.3-0.4-1-1.2-1.4-1.5c0.6-0.4,1.2-0.8,1.7-1.3c-0.4-0.5-0.8-1.1-1.1-1.8l1.7-0.6c0.2,0.4,0.4,0.7,0.7,1.1
		c0.7-0.7,1.3-1.6,1.8-2.4c-2.8,0.2-3.4,0.3-3.9,0.4c-0.1-0.4-0.4-1.4-0.6-1.9c0.7-0.1,1.4-0.5,2.4-1c0.5-0.2,1.3-0.8,2.4-1.5
		c-2.8,0.1-3.4,0.2-3.8,0.4c-0.1-0.4-0.4-1.4-0.7-2c0.4-0.1,0.9-0.4,1.5-0.7c0.6-0.4,2.4-1.8,3.7-3.4l2,0.9
		c-1.2,1.2-2.6,2.4-3.9,3.3l3.5-0.1c0.9-0.7,1.8-1.5,2.7-2.2l1.9,1c-2.4,2-5,3.7-7.5,5.1l5.8-0.3c-0.4-0.6-0.8-1.1-1.2-1.6l1.6-0.8
		c1.2,1.5,2.7,3.5,3.5,4.8l-1.7,1c-0.2-0.5-0.6-1.1-1.1-1.8l-4.5,0.3c-0.3,0.5-0.6,1.1-0.9,1.6h4.8l0.4-0.1L154.6,182.6z M147,183.7
		c-0.2,0.3-0.4,0.6-0.7,0.8c0.7,0.8,1.6,1.5,2.6,2.1c1.2-0.8,2.3-1.8,3-2.9L147,183.7L147,183.7z"/>
	<path class="st3" d="M160.5,184c1.7-0.6,2.7-1.7,2.8-3c-0.1,0-0.2,0-0.3,0c-1,0-1.8-0.6-1.8-1.8c0-1.1,0.9-1.8,1.9-1.8
		c1.4,0,2.1,1.1,2.1,2.8c0,2.4-1.5,4.3-4,5.1L160.5,184z"/>
	<path class="st3" d="M188.6,171.6V191h-2.2v-1.2h-14.1v1.2h-2.1v-19.4H188.6z M186.4,187.9v-14.2h-14.1v14.2H186.4z M183.6,176.8
		v8.1H175v-8.1H183.6z M181.6,178.6h-4.7v4.5h4.7V178.6z"/>
	<path class="st3" d="M197.3,185h3.7v1.7h-3.7v4.2h-1.9v-4.2h-3.9V185h3.9v-2.1h-3.5v-1.7h1.8c-0.2-0.7-0.6-1.7-0.9-2.4l1.4-0.4
		h-2.7v-1.7h3.9v-1.9h-3.3v-1.7h3.3V171h1.9v2.1h3.2v1.7h-3.2v1.9h3.7v1.7h-2.4l1.4,0.4c-0.4,0.8-0.9,1.7-1.3,2.5h1.9v1.7h-3.3
		L197.3,185L197.3,185z M194.4,178.3c0.5,0.8,0.9,1.8,1,2.5l-1.1,0.4h2.6c0.5-0.9,1-2,1.3-2.9H194.4z M210.9,179.6
		c-0.5,2.6-1.3,5-2.5,7c1,1.1,2,2,3.3,2.6c-0.5,0.4-1.1,1.1-1.4,1.6c-1.1-0.6-2.1-1.5-3-2.6c-0.8,1.1-1.8,2-2.9,2.8
		c-0.2-0.3-0.5-0.6-0.8-0.9v0.9h-1.9v-19.2h8.7v4.2c0,0.9-0.2,1.5-0.9,1.7c-0.7,0.3-1.8,0.3-3.5,0.3c-0.1-0.5-0.4-1.3-0.6-1.8
		c1.3,0,2.4,0,2.7,0c0.4,0,0.4-0.1,0.4-0.3v-2.3h-4.9v5.6h5.7l0.4-0.1L210.9,179.6z M203.6,189.3c1-0.7,1.8-1.6,2.6-2.6
		c-1.1-1.7-1.9-3.6-2.6-5.7V189.3z M205.3,180.9c0.5,1.5,1.1,2.9,1.9,4.1c0.7-1.3,1.2-2.7,1.5-4.1H205.3z"/>
	<path class="st3" d="M232.2,180.7c-1,1.8-2.2,3.5-3.7,5c0.7,2,1.6,3.3,2.5,3.3c0.5,0,0.8-1.1,0.9-3.8c0.5,0.5,1.2,1,1.7,1.1
		c-0.4,3.7-1,4.8-2.8,4.8c-1.7,0-3-1.5-3.9-3.8c-1.4,1.2-2.8,2.2-4.4,3c-0.3-0.5-0.9-1.2-1.4-1.7c1.8-0.8,3.5-2,5.1-3.4
		c-0.5-1.8-0.9-3.9-1.2-6.2h-4.9v3.1l3.7-0.7l0.2,1.8c-1.3,0.3-2.6,0.6-3.8,0.9v4.4c0,1.2-0.3,1.8-1.1,2.1s-2,0.4-3.8,0.4
		c-0.1-0.6-0.5-1.5-0.8-2.1c1.3,0,2.6,0,3,0s0.5-0.1,0.5-0.5v-3.9c-1.6,0.3-3,0.6-4.2,0.9l-0.6-2c1.3-0.2,3-0.5,4.8-0.9V179h-4.4
		v-1.9h4.4v-3c-1.3,0.2-2.6,0.4-3.8,0.5c-0.1-0.5-0.4-1.3-0.6-1.7c3.1-0.5,6.6-1.2,8.7-1.9l1.4,1.7c-1.1,0.4-2.3,0.7-3.6,0.9v3.5
		h4.7c-0.2-2-0.3-4-0.3-6.1h2.1c0,2.1,0.1,4.2,0.2,6.1h6.2v1.9h-6c0.2,1.7,0.5,3.1,0.8,4.5c1-1.1,1.8-2.3,2.5-3.6L232.2,180.7z
		 M231.1,176.2c-0.6-1-2-2.6-3.3-3.7l1.5-1.1c1.2,1.1,2.7,2.6,3.4,3.6L231.1,176.2z"/>
	<path class="st3" d="M78.4,198.5c-1.6,3.6-4,7.2-6.5,9.4c-0.4-0.4-1.3-1.3-1.8-1.7c2.4-2,4.7-5.2,6-8.4L78.4,198.5z M84.6,208.8
		c1.8,2.4,3.8,5.5,4.9,7.4l-2.1,1.1c-0.3-0.6-0.7-1.3-1.2-2.1c-11,0.8-12.3,0.9-13.3,1.3c-0.1-0.5-0.5-1.6-0.8-2.2
		c0.7-0.2,1.3-0.8,2.1-1.8c0.9-1,3.7-4.8,5.5-8.5l2.4,1c-1.8,3.2-4,6.4-6.2,8.9l9.2-0.6c-0.8-1.3-1.7-2.6-2.4-3.7L84.6,208.8z
		 M85,197.8c1,3.3,3.1,6.5,5.7,8.1c-0.5,0.5-1.2,1.4-1.6,2c-2.5-1.9-4.5-5-5.7-8.1h-3.8v-2.1H85V197.8z"/>
	<path class="st3" d="M111,214.6c0,1.3-0.3,2-1.1,2.3c-0.8,0.4-2.2,0.4-4.2,0.4c-0.1-0.6-0.4-1.6-0.7-2.2c1.4,0.1,2.9,0.1,3.3,0
		s0.6-0.1,0.6-0.5v-14H93.3v-2H111V214.6z M106.5,204.3h-13v-1.8h13V204.3z M96.8,213.5v1.6h-2v-8.7h10.4v7.1L96.8,213.5L96.8,213.5
		z M96.8,208.1v3.6h6.4v-3.6H96.8z"/>
	<path class="st3" d="M133.8,200.6c0,0,0,0.7,0,1c-0.3,9.9-0.6,13.3-1.5,14.4c-0.6,0.7-1.1,0.9-1.9,1c-0.8,0.1-2.1,0.1-3.3,0
		c0-0.6-0.3-1.4-0.7-2c1.4,0.1,2.7,0.1,3.2,0.1c0.4,0,0.7-0.1,0.9-0.4c0.7-0.7,1-4,1.3-12.3h-5.2c-0.6,1.4-1.3,2.7-2,3.7
		c-0.3-0.3-1.1-0.9-1.6-1.1v10.1h-6v1.7h-1.9v-16.1h2.5c0.3-1.1,0.6-2.5,0.8-3.6l2.2,0.4c-0.4,1.1-0.8,2.3-1.1,3.2h3.5v4.2
		c1.5-1.9,2.6-4.8,3.3-7.7l2,0.5c-0.3,1-0.6,2-0.9,3L133.8,200.6L133.8,200.6z M117.1,202.5v4.2h4.1v-4.2H117.1z M121.2,213.3v-4.9
		h-4.1v4.9H121.2z M128.6,211.6c-0.6-1.3-2-3.5-3.2-5.1l1.6-0.9c1.2,1.5,2.7,3.6,3.3,4.9L128.6,211.6z"/>
	<path class="st3" d="M152.8,196.9c0,1-0.1,2.3-0.2,3.7c0.3,3.1,1.7,10.9,9.3,14.3c-1,0.8-1.9,1.9-2.4,2.8c-4.6-2.2-7.1-6.1-8.4-9.7
		c-1.3,3.6-3.6,7.2-7.8,9.8c-0.6-0.9-1.6-1.9-2.7-2.6c8.8-4.9,8.3-14.3,8.4-18.3H152.8z"/>
	<path class="st3" d="M183.6,211.7h-2.3v3.8H178v-0.9h-3.2v0.3c0,1.5-0.3,2.1-1.3,2.5c-0.9,0.4-2.2,0.4-4,0.4
		c-0.2-0.7-0.6-1.8-1-2.5c0.9,0,2.2,0,2.6,0c0.4,0,0.5-0.2,0.5-0.5v-0.3h-6.4v-2.3h6.4v-0.7H163v-2.4h8.6v-0.6h-6.3v-2.1h6.3v-0.7
		h-5.8V201h5.8v-0.7h-8v-2.5h8v-1.3h3.3v1.3h8.2v2.5h-8.2v0.7h6.1v4.7h-6.1v0.7h6.5v2.7h2.3v2.6H183.6z M171.6,204v-0.7h-2.8v0.7
		H171.6z M174.9,203.2v0.7h2.8v-0.7H174.9z M174.9,209.3h3.2v-0.6h-3.2V209.3z M178.1,211.7h-3.2v0.7h3.2V211.7z"/>
	<path class="st3" d="M204.9,198.6c-0.5,1.3-1.3,2.7-2.1,3.6c0.8,0.1,1.8,0.2,2.8,0.2c-0.6,0.6-1.4,1.8-1.7,2.6
		c-2.4-0.3-4.3-0.9-5.7-2c-0.9,0.9-2.6,1.6-5.9,2H203v9h-2.6c1.8,0.7,3.7,1.6,4.8,2.2l-2.9,1.7c-1.2-0.7-3.4-1.9-5.5-2.7l1.4-1.1
		h-5.8l2,0.9c-1.8,1.2-4.7,2.4-7,3c-0.6-0.6-1.7-1.8-2.4-2.3c2-0.3,4.1-0.9,5.6-1.6H188v-9h3.9c-0.2-0.4-0.4-0.9-0.8-1.3h-5.9v-2.4
		h6.8v1.3c3.7-0.3,4.2-1,4.2-1.7v-0.4h-0.8c-0.5,0.7-1,1.2-1.5,1.7c-0.5-0.5-1.7-1.2-2.4-1.6c1.2-0.9,2.1-2.3,2.6-3.8l2.8,0.6
		c-0.1,0.3-0.2,0.5-0.3,0.8h5.6l0.5-0.1L204.9,198.6z M191.5,200.1h-5.9v-2.3h5.9V200.1z M199.8,206.8h-8.7v0.6h8.7V206.8z
		 M191.1,209.7h8.7v-0.6h-8.7V209.7z M191.1,212.1h8.7v-0.6h-8.7V212.1z M199.1,200.4v0.5c0.7,0.7,1.9,1.1,3.4,1.3l-2.2-0.8
		c0.2-0.3,0.4-0.6,0.6-1H199.1z"/>
	<path class="st3" d="M225.4,211.9v5.9h-3v-5.3l-5.8,1l-0.3-1.8l-2.1,2.4c-0.2-0.8-0.6-1.8-1.1-2.8v6.5h-2.9v-6.1
		c-0.5,1.7-1.2,3.3-2.2,4.3c-0.2-1.1-0.9-2.8-1.4-3.9c0.9-1,1.8-2.8,2.1-4.3l1.5,0.5v-1.1H207v-3h3.2v-7.3h2.9v6.2
		c0.4-1.4,0.8-3.5,1-5l2.7,0.5c-0.6,1.8-1.2,3.9-1.7,5.2l-2-0.5v0.8h3.1v3h-3.1v1.2l0.7-0.5c0.5,0.5,2,2.9,2.4,3.7l-0.2-1l6.2-1.1
		v-12.5h3v12l2.1-0.4l0.5,3L225.4,211.9z M207.8,204c0-1.4-0.4-3.6-0.9-5.3l2.2-0.6c0.6,1.7,1,3.8,1.1,5.2L207.8,204z M217.8,203.3
		c1.3,0.7,2.9,1.8,3.7,2.6l-1.6,2.6c-0.7-0.8-2.4-2-3.6-2.8L217.8,203.3z M220.6,202.9c-0.7-0.9-2.2-2.1-3.4-2.9l1.5-2.2
		c1.2,0.7,2.8,1.8,3.5,2.6L220.6,202.9z"/>
</g>
<rect x="113.8" y="94.4" class="st4" width="97.1" height="5.2"/>
<rect x="136.8" y="221.5" class="st4" width="97.1" height="5.2"/>
<rect x="539.4" y="127.1" class="st4" width="97.1" height="5.2"/>
<rect x="623.8" y="245.2" class="st4" width="97.1" height="5.2"/>
<g>
	<g>
		<path class="st3" d="M137,54.5c-1,1.8-2.2,3.5-3.7,5c0.7,2,1.6,3.3,2.5,3.3c0.5,0,0.8-1.1,0.9-3.8c0.5,0.5,1.2,1,1.7,1.1
			c-0.4,3.7-1,4.8-2.8,4.8c-1.7,0-3-1.5-3.9-3.8c-1.4,1.2-2.8,2.2-4.4,3c-0.3-0.5-0.9-1.2-1.4-1.7c1.8-0.8,3.5-2,5.1-3.4
			c-0.5-1.8-0.9-3.9-1.2-6.2h-4.9v3.1l3.7-0.7l0.2,1.8c-1.3,0.3-2.6,0.6-3.8,0.9v4.4c0,1.2-0.3,1.8-1.1,2.1s-2,0.4-3.8,0.4
			c-0.1-0.6-0.5-1.5-0.8-2.1c1.3,0,2.6,0,3,0s0.5-0.1,0.5-0.5v-3.9c-1.6,0.3-3,0.6-4.2,0.9l-0.6-2c1.3-0.2,3-0.5,4.8-0.9v-3.5h-4.4
			v-1.9h4.4v-3c-1.3,0.2-2.6,0.4-3.8,0.5c-0.1-0.5-0.4-1.3-0.6-1.7c3.1-0.5,6.6-1.2,8.7-1.9l1.4,1.7c-1.1,0.4-2.3,0.7-3.6,0.9v3.5
			h4.7c-0.2-2-0.3-4-0.3-6.1h2.1c0,2.1,0.1,4.2,0.2,6.1h6.2v1.9h-6c0.2,1.7,0.5,3.1,0.8,4.5c1-1.1,1.8-2.3,2.5-3.6L137,54.5z
			 M135.9,50c-0.6-1-2-2.6-3.3-3.7l1.5-1.1c1.2,1.1,2.7,2.6,3.4,3.6L135.9,50z"/>
		<path class="st3" d="M144.3,57.5v-5.1c-0.9,1.6-1.9,3-3,3.9c-0.3-0.5-0.9-1.1-1.3-1.5c1.5-1.1,3.1-3.2,4-5.3h-3.5v-1.7h3.8v-3.1
			h1.9v3.1h3.3v1.7h-3.3v1.1c0.8,0.5,3,2.1,3.6,2.5l-1.1,1.7c-0.5-0.5-1.6-1.5-2.5-2.3v5L144.3,57.5z M140.2,62.7
			c0.9-1.2,1.6-3,2-4.5l1.8,0.7c-0.4,1.5-1.1,3.5-2,4.7L140.2,62.7z M152.7,62.5c1,0,1.2-0.3,1.3-2.5c0.4,0.3,1.3,0.6,1.8,0.7
			c-0.3,2.9-0.9,3.6-3,3.6h-4.3c-2.6,0-3.3-0.6-3.3-2.5v-3.3h2v3.3c0,0.6,0.2,0.7,1.5,0.7C148.7,62.5,152.7,62.5,152.7,62.5z
			 M149.6,56.9c1,0.9,2.3,2.2,3,3l-1.5,1.3c-0.6-0.8-1.9-2.2-2.9-3.2L149.6,56.9z M159.1,57.2h-8.7V45.7h8.7V57.2z M157.1,47.4h-4.9
			v1.7h4.9V47.4z M157.1,50.6h-4.9v1.7h4.9V50.6z M157.1,53.9h-4.9v1.7h4.9V53.9z M157.5,57.9c0.9,1.4,2.1,3.2,2.7,4.4l-1.9,1
			c-0.5-1.1-1.7-3.1-2.6-4.5L157.5,57.9z"/>
		<path class="st3" d="M180.9,47.3c-1.9,2.1-4.9,4.4-7.6,6v9c0,1.3-0.3,1.9-1.3,2.2c-0.9,0.3-2.4,0.4-4.6,0.4
			c-0.1-0.6-0.5-1.5-0.8-2.1c1.7,0.1,3.4,0.1,3.9,0c0.5,0,0.6-0.1,0.6-0.5v-10c1.9-1,4.1-2.5,5.6-4h-13.3v-2h15.4l0.5-0.1
			L180.9,47.3z"/>
		<path class="st3" d="M198.8,47.4c-0.4,2.6-1.5,4.6-4.2,5.8c-0.2-0.4-0.6-0.9-1-1.3v10.8c0,0.9-0.2,1.5-0.8,1.8s-1.5,0.3-2.9,0.3
			c-0.1-0.5-0.4-1.3-0.6-1.7c1.1,0,2,0,2.2,0c0.3,0,0.4-0.1,0.4-0.4v-3.6H187c-0.2,2-0.7,4.2-1.7,5.7c-0.3-0.3-1.1-0.7-1.5-0.9
			c1.5-2.3,1.6-5.5,1.6-8v-3.5l-0.2,0.2c-0.3-0.3-1.1-0.9-1.5-1.2c1.5-1.7,2.7-4.2,3.3-6.9l1.9,0.4c-0.2,0.5-0.3,1.1-0.5,1.6h2.3
			l0.3-0.1l1.2,0.7c-0.4,0.9-0.8,2-1.3,2.9h2.6v1.6c2.1-0.9,2.9-2.5,3.2-4.3H194v-1.7h9.6c0,0,0,0.5,0,0.7c-0.2,3.6-0.4,5-0.8,5.6
			c-0.3,0.4-0.7,0.6-1.3,0.6c-0.5,0.1-1.3,0.1-2.2,0c0-0.5-0.2-1.2-0.5-1.7c0.8,0.1,1.5,0.1,1.8,0.1s0.5,0,0.6-0.2
			c0.2-0.3,0.4-1.2,0.5-3.4h-2.9L198.8,47.4L198.8,47.4z M188,48.2c-0.3,0.7-0.6,1.4-0.9,2h2.2c0.3-0.6,0.6-1.3,0.8-2H188z
			 M187.2,55.9c0,0.5,0,1,0,1.6h1.7v-2.2h-1.7V55.9z M187.2,53.8h1.7v-2.1h-1.7V53.8z M190.3,53.8h1.7v-2.1h-1.7V53.8z M192,57.5
			v-2.2h-1.7v2.2H192z M204.3,60.8h-4v3.9h-1.9v-3.9H194V59h4.4v-2.4h-2.2c-0.3,0.7-0.7,1.4-1,2c-0.4-0.3-1.1-0.6-1.5-0.8
			c0.9-1.2,1.5-3,1.9-4.8l1.7,0.4c-0.1,0.5-0.2,1.1-0.4,1.6h1.5v-2.1h1.9V55h3.6v1.8h-3.6V59h4L204.3,60.8L204.3,60.8z"/>
		<path class="st3" d="M223.5,47.6c-1.3,2-3.1,3.7-5.2,5.2c2.5,1.2,5.3,2.2,8.3,2.7c-0.5,0.5-1.1,1.3-1.3,1.9
			c-3.2-0.7-6.2-1.8-8.9-3.4c-2.9,1.6-6.2,2.8-9.4,3.5c-0.2-0.5-0.6-1.4-1-1.8c2.8-0.6,5.9-1.6,8.6-2.9c-1.2-0.8-2.2-1.8-3.2-2.8
			c-1.1,1-2.2,1.8-3.3,2.5c-0.3-0.4-1.1-1.2-1.5-1.5c2.8-1.5,5.4-3.9,7-6.6l1.9,0.7c-0.4,0.6-0.7,1.2-1.2,1.7h7.6l0.4-0.1
			L223.5,47.6z M209.7,56.9h13.1v7.9h-2.2v-0.9h-8.8v0.9h-2.1V56.9z M211.7,58.7v3.4h8.8v-3.4H211.7z M212.5,48.7
			c1,1.1,2.3,2.1,3.8,3c1.5-0.9,2.8-2,3.9-3.1L212.5,48.7L212.5,48.7z"/>
		<path class="st3" d="M229,55.2h8v9.5h-2v-1h-4v1.1h-1.9v-9.6C229.1,55.2,229,55.2,229,55.2z M230.9,57.1v4.6h4v-4.6H230.9z
			 M244.4,53h-12.3v-7.5h12.3V53z M242.3,47.5H234v3.6h8.3V47.5z M247.5,55.2v9.5h-2v-1h-4.4v1.1h-2v-9.6
			C239.1,55.2,247.5,55.2,247.5,55.2z M245.4,61.7v-4.6H241v4.6H245.4z"/>
		<path class="st3" d="M258.4,58c-2.7,1-5.5,2-7.7,2.8l-0.8-2c0.9-0.3,2-0.6,3.2-1V49h-2.7v-1.9h7.5V49h-2.7v8.2l2.9-1L258.4,58z
			 M263,61.9c-1.4,1.1-3.7,2.2-5.6,2.9c-0.3-0.4-0.9-1.1-1.3-1.4c1.8-0.6,4.1-1.7,5.2-2.6L263,61.9z M262.5,49.2
			c0.1-0.6,0.3-1.3,0.4-1.9H258v-1.7h12.3v1.7h-5.1c-0.2,0.6-0.4,1.3-0.6,1.9h4.9v11.4H259V49.2H262.5z M267.5,50.7h-6.6v1.8h6.6
			V50.7z M267.5,54h-6.6v1.8h6.6V54z M267.5,57.2h-6.6V59h6.6V57.2z M266.3,60.9c1.4,0.7,3.4,1.9,4.4,2.7l-1.6,1.2
			c-0.9-0.8-2.8-2-4.3-2.8L266.3,60.9z"/>
		<path class="st3" d="M291.6,48c0,0,0,0.7,0,1c-0.3,9.9-0.6,13.3-1.5,14.4c-0.6,0.7-1.1,0.9-1.9,1s-2.1,0.1-3.3,0
			c0-0.6-0.3-1.4-0.7-2c1.4,0.1,2.7,0.1,3.2,0.1c0.4,0,0.7-0.1,0.9-0.4c0.7-0.7,1-4,1.3-12.3h-5.2c-0.6,1.4-1.3,2.7-2,3.7
			c-0.3-0.3-1.1-0.9-1.6-1.1v10.1h-6v1.7h-1.9V48.1h2.5c0.3-1.1,0.6-2.5,0.8-3.6l2.2,0.4c-0.4,1.1-0.8,2.3-1.1,3.2h3.5v4.2
			c1.5-1.9,2.6-4.8,3.3-7.7l2,0.5c-0.3,1-0.6,2-0.9,3h6.4L291.6,48L291.6,48z M274.9,49.9v4.2h4.1v-4.2H274.9z M279,60.7v-4.9h-4.1
			v4.9H279z M286.4,59c-0.6-1.3-2-3.5-3.2-5.1l1.6-0.9c1.2,1.5,2.7,3.6,3.3,4.9L286.4,59z"/>
		<path class="st3" d="M137.9,88.3c0,1.4-0.2,2.2-1.1,2.7c-0.9,0.5-2.1,0.5-3.7,0.5c-0.1-0.8-0.5-2.2-0.9-2.9c0.9,0.1,1.9,0.1,2.3,0
			c0.3,0,0.4-0.1,0.4-0.4v-2.1c-1.7,0.5-3.4,0.9-4.8,1.2l-0.5-1.4c-0.1,2.1-0.4,4.4-1.3,5.8c-0.5-0.5-1.8-1.4-2.5-1.7
			c0.2-0.3,0.3-0.6,0.4-0.8c-2.7,0.6-5.6,1.3-7.8,1.8l-0.6-2.9c0.9-0.1,2-0.3,3.3-0.4v-5h-2.9V80h2.9v-1.2h-1.5v-0.4
			c-0.2,0.2-0.5,0.4-0.7,0.6c-0.2-0.7-0.9-2.5-1.3-3.3c1.5-1.3,3.1-3.2,4-5.2l2.8,1c-0.1,0.2-0.2,0.5-0.3,0.7
			c1.2,0.9,2.6,2.1,3.3,2.8l-1.8,2.5c-0.1-0.2-0.3-0.3-0.5-0.5v1.9h-1.2v1.2h2.2v2.7h-2.2v3.8c0.3-1,0.5-2.4,0.6-3.4l2.4,0.5
			c-0.4,1.2-0.8,2.5-1.1,3.3l0.5-0.1l0.2,2.1c0.5-1.5,0.5-3.4,0.5-5.1v-7.2h4.1v-6.1h3.1v6.1h4v11.6H137.9z M120.1,83.2
			c0.3,1.1,0.7,2.6,0.8,3.6l-2.2,0.6c-0.1-1-0.4-2.5-0.7-3.7L120.1,83.2z M124.1,76.1c-0.5-0.5-1.1-1-1.7-1.5c-0.3,0.5-0.7,1-1,1.5
			H124.1z M123.7,87.2l1.5-0.2l-1.5-0.4V87.2z M127.8,76.5c-0.2-1.1-1-2.8-1.7-4.1l2.6-1.2c0.8,1.2,1.6,2.8,1.9,3.9L127.8,76.5z
			 M129.7,79.5v2.2l1.1-1.7c1.3,0.3,3.1,1,4.1,1.5v-2.1L129.7,79.5L129.7,79.5z M129.7,84.7c1.4-0.3,3.3-0.7,5.2-1.1v-1.9l-1.4,2.1
			c-0.8-0.6-2.5-1.3-3.9-1.7v2L129.7,84.7L129.7,84.7z M138.7,72.1c-0.6,1.6-1.3,3.1-1.9,4.2l-2.7-1c0.6-1.1,1.3-2.9,1.6-4.2
			L138.7,72.1z"/>
		<path class="st3" d="M159.6,81v2.3h-13.8V84h-3.1v-5.3c-0.4,0.4-0.7,0.7-1,1c-0.4-0.6-1.5-2-2.1-2.6c2-1.6,3.9-4.1,5-6.6l3,1
			c-0.2,0.4-0.4,0.9-0.6,1.3h2.8c-0.2-0.5-0.4-0.9-0.5-1.3l3-0.8c0.4,0.7,0.7,1.5,1,2.2h6v2.2h-6.1v0.7h4.9v2h-4.9v0.7h4.9v2h-4.9
			V81H159.6z M142.5,84.3h15.8v7.3H155v-0.8h-9.3v0.8h-3.2V84.3z M145.7,86.7v1.6h9.3v-1.6H145.7z M149.8,74.9h-4v0.7h4V74.9z
			 M149.8,77.6h-4v0.7h4V77.6z M145.8,81h4v-0.7h-4V81z"/>
		<path class="st3" d="M181.9,83.7c-1.2,0.8-2.6,1.6-3.8,2.3c1.3,1.1,2.8,1.9,4.7,2.4c-0.7,0.7-1.6,2-2.1,2.8
			c-4.6-1.6-7.2-4.7-8.8-9.3c-0.7,0.7-1.6,1.5-2.5,2.2v3.2l4.4-1.2c0.1,0.9,0.4,2.2,0.6,2.9c-6.4,1.8-7.5,2.2-8.3,2.6
			c-0.2-0.8-0.8-2.2-1.3-2.8c0.6-0.3,1.3-0.9,1.3-1.9v-0.7c-0.8,0.4-1.7,0.8-2.6,1.1c-0.5-0.7-1.4-1.9-2.1-2.6
			c2.3-0.7,4.7-1.8,6.5-3.2h-5.6v-2.7h8.2V78h-6.1v-2.5h6.1v-0.8h-7.2V72h7.2v-1.4h3.2V72h7.5v2.7h-7.5v0.8h6.7V78h-6.7v0.8h8.3v2.7
			h-7.1c0.4,0.9,0.8,1.7,1.4,2.5c1.1-0.7,2.2-1.6,2.9-2.3L181.9,83.7z"/>
		<path class="st3" d="M192.3,86.3c-2.8,0.8-5.8,1.7-8.1,2.4l-0.8-3c0.9-0.2,1.9-0.4,3-0.7v-3.9h-2.3v-2.9h2.3v-3.4H184v-2.9h7.8
			v2.9h-2.3v3.4h2.1v2.9h-2.1v3.1c0.8-0.2,1.6-0.4,2.4-0.6L192.3,86.3z M201.9,88.7c0.3,0,0.4-0.4,0.4-2.5c0.6,0.5,1.9,1,2.7,1.2
			c-0.3,3.2-1,4.1-2.8,4.1h-1.4c-2.3,0-2.8-0.9-2.8-3.5v-4h-0.9c-0.3,3.6-1.3,6.2-6.2,7.7c-0.3-0.8-1.1-2-1.7-2.6
			c4.1-1,4.6-2.6,4.9-5.1h-1.4V71.4h11.1V84h-2.6v4c0,0.7,0,0.8,0.3,0.8h0.4V88.7z M195.6,74.9h5V74h-5V74.9z M195.6,78.1h5v-0.9h-5
			V78.1z M195.6,81.4h5v-0.9h-5V81.4z"/>
	</g>
</g>
<g>
	<path class="st5" d="M474.5,182.7c-0.4-4.6-1-9.3-1.7-13.8c-2.4-13.8-6.3-25.2-19.9-31.2c-9.5-4.2-20.1-5.6-30.3-7.1
		c-30.6-4.7-61.7-5.9-92.5-3.5c-10.3,0.8-20.6,2-30.5,5.2c-8.3,2.6-15.8,6.9-21.5,13.6c-5.5,6.4-9.3,14.1-12.5,21.9
		c-9.1,22.1-25.9,57.6-35.2,83.2c-0.2,0.7,14.4-13.4,15-13.3c-0.2,1.3-0.3,2.6-0.4,4c-0.1,2-0.5,4.6,0.6,6.3
		c2.1,3.4,6.3,1.3,8.8-0.4c4.8-3.3,8.8-7.5,12.7-11.7c4.5-4.7,8.9-9.4,13.3-14.1c4.3-4.5,9-9.3,15.3-10.7c7-1.6,5.4,0,8.3,6.3
		c4,8.7,9.9,15.5,13.5,24.6c6.9,17.3,14.8,34.1,22.7,51c1.2,9.8,15.4,7.7,22.2,7.5c12.6-0.3,25.2-1.3,37.7-2.6
		c11.9-1.2,23.8-2.5,35.6-4.1c11.5-1.5,12.5,0.1,23.4-4.2c0.6-0.2,0.8-0.8,0.7-1.3c0.1-0.1,0.1-0.3,0.2-0.4
		c2.9-22.5,15-48.9,15.3-71.6C475.4,205,475.4,193.8,474.5,182.7z"/>
	<path class="st6" d="M302.2,187.3c-2.2,7.6-1.7,15.5-1.2,23.3c1.3,0.7,1.4,2.8,3.2,6.6c2.2,4.8,5,9.1,7.7,13.5
		c-0.3-5.3-0.7-10.7-1-16c-0.5-8.2-1.7-16.8,0.6-24.8C313.2,184,303.9,181.4,302.2,187.3z"/>
	<path class="st6" d="M397.3,141.3c-5.1,6.7-10.2,13.4-16.3,19.3c-3,2.9-6.5,6.6-10.7,7.4c-3,0.6-5.9-0.1-8.8,0.9
		c-0.1-0.2-0.2-0.5-0.2-0.7c-0.5-1.7-3.2-1-2.6,0.7c0,0.1,0,0.1,0.1,0.2c-1.7-0.3-3.3-1-4.9-2.2c-2.1-1.7-3.9-3.7-5.7-5.7
		c-3.5-4.1-6.4-8.7-8.8-13.6c-0.6-1.1-2.2-0.7-2.5,0.3c-2.2,6.6-1.2,14.3,0.5,21c1.8,7.1,3.6,15.2,9.3,19.8
		c4.5,3.6,13.1-9.1,13.7-11.6c3.7-1.9,11.1,13.4,13.7,12.2c2.8-1.3,8.3-8.1,10.2-10.5c9.5-12.3,12-21.4,15.6-36.3
		C400.2,140.8,398.2,140.1,397.3,141.3z"/>
	<path class="st7" d="M394.9,80.7c-0.2-0.3-0.5-0.6-0.8-0.7c-1.2-0.6-2.4-3.1-3.4-4.1c-1.3-1.4-2.8-2.6-4.3-3.7
		c-3-2.2-6.5-3.9-10.1-4.9c-6.1-1.8-14.1-2.9-20,0s-10.8,8.3-14.6,13.7c-8.8,12.7-13.4,27.5-12.5,42.9c0.9,15,4.3,29.4,12.9,42
		c3.6,5.2,8.8,10.4,15.1,11.8c10.2,2.3,18.9-5.7,25.4-12.5C403.1,143.8,411.3,106.6,394.9,80.7z"/>
	<path class="st0" d="M424.6,93.3c-0.7-6.2-4.2-12.1-9.8-13.6c1.8-5.4,1.1-11.7-2.6-16.2s-9.5-6-14.7-4.7
		c-2.1-11-15.6-11.5-24.2-9.4c-3.9,0.9-7.7,2.3-11.4,4c-4.7,1.4-9.5,2.9-14.1,4.7c-4.1,1.6-8,3.4-11.2,6.7
		c-4.1,4.2-5.3,9.3-8.3,14.1c-3.3,5.2-9,7.6-10.9,14c-3.8,12.6,6.4,27.2,12.5,37.4c1.5,2.5,0.4-14.4,0.8-17.3
		c0.5-4.4,1.5-8.7,3-12.8c2.2-6.1,5.4-11.9,9.4-16.9c2.9-3.6,5-2.6,8-0.1c9.2,7.6,21.1,2.3,30.6-1.9c8.5-3.8,13,7.5,14.1,14.5
		c0.8,5,0,9.3-1,14.2c-1.4,6.8-1.8,12.8-1.8,19.6c0,5,9.8,17.2,6.3,13.3c-1.3-1.4-0.1,0.8,0.4,1c1.2,0.4-0.8-3.6,0-4.5
		c3.4-3.6,7.8-6.4,9.5-10.9c1.7-4.6,3.4-9.1,5.2-13.6c1.6-4,4.6-6.2,6.8-9.6C423.7,101.9,425.2,97.7,424.6,93.3z"/>
	<path class="st7" d="M402.2,115.8c-3.3,2.2-6.8,6.9-7.8,9.1c-2.2,4.8-4.7,10.7-3.3,16c1.5,5.5,5.6,6.3,9.7,2.7
		c5.2-4.5,7.4-10.8,7.9-17.5C409.1,122,409.2,111.2,402.2,115.8z"/>
	<path class="st7" d="M360.2,86.3c-6.8,0.3-13,3.3-19,6.8c-1.5,0.9-2.9,1.8-4.2,2.8c-0.6,0.5-1.4-0.3-0.9-0.9
		c2.6-3.3,5.3-6.4,8.2-9.4c2.2-2.2,5.2-3,8-4.1c3.1-1.2,6.5-1.6,8.9-4c2-2,2.1-7.8-1.2-5.9c-0.6,0.3-1.2,0.7-1.8,1
		c-0.4-1.5-2-2.8-3.9-2.1c-2.6,1-5.1,2-7.6,3.2c-0.4-0.2-1-0.2-1.6,0c-7.5,2.2-15.7,4.8-20.3,11.6c-2.7,4-4.2,8.8-5.9,13.3
		c-2.2,5.4-5.1,17.1-7.2,22.5c-0.2,0.6-7.2,10.5-10.7,18.4c-1.6,3.6,3.7,7.8,1.6,10.5c-2.1,2.9,2.4,6,4.5,3.1
		c3.4-4.6,6.9-9.2,10.4-13.9c3.8-1.9,6.8-4.5,9-8.8c2.8-5.6,4.8-11.4,6.9-17.2c0.9-2.4,2.7-5.9,4.1-8.1c2.4-3.9,4.7-6.4,8.8-8.5
		c5.4-2.8,3.6-2.4,9.3-4.5C361.8,89.8,361.7,86.2,360.2,86.3z"/>
	<path class="st5" d="M318.2,158.6c-0.4-1.4-0.8-2.7-1.1-4.1c-0.5-2.4-1.1-5.1-0.7-7.5c-2.2-8.6-4.4-17.1-5.9-25.3
		c-0.3-1.7-15.2,23.6-29.7,47.2l0,0c-5.9,10-11.8,19.9-18.3,29.5c-3.2,4.8-6.1,9.7-9.4,14.5c-3,4.3-6.2,8.6-8.8,13.2
		c-0.3,0.6-0.9,0.7-1.4,0.5c-6,9.6-11.2,19.6-14.9,30.5c-2.2,6.5-3.8,13.9-1.5,20.7c1.5,4.4,4.4,8,8.4,10.1c0.2,0.2,0.3,0.3,0.5,0.4
		c9.5,6.1,27.3,0.9,35.5-5.6c0.1-0.1,0.3-0.2,0.4-0.3c6.7-5.5,9.5-14.9,14.9-21.5c4.3-5.3,9-10.3,12.1-16.3
		c4.4-8.4,3.2-16.5,4.7-25.4c1.3-7.9,4.5-15.2,8.6-22c1.1-3.2,2.6-6.2,4.4-9c1.4-2.2,2.6-4.6,4.5-6.4c0.7-1.2,1.4-2.4,2.1-3.6v-0.1
		C323.1,171.3,318.7,165.4,318.2,158.6z"/>
	<path class="st8" d="M358.7,144.8c-4.5-2.3-4.1-7.8-3.6-12.1c0.6-4.7,1.3-9.4,2.2-14c0.1-0.4-0.6-0.6-0.7-0.2
		c-1.1,5.3-2,10.7-2.5,16.1c-0.4,4,0.1,8.8,4.1,10.8C358.8,145.6,359.1,145,358.7,144.8z"/>
	<path class="st7" d="M356.8,295.4c-0.8-2.3-1.6-4.6-3.3-6.5c-0.7-0.8-1.5-1.6-2.3-2.3c-0.9-1.3-1.9-2.6-2.9-3.8l-0.1-0.1
		c-0.1-0.4-0.4-0.7-1-0.7c-6.4,0.7-12.8,1.2-19.2,1.6c-3.2,0.2-6.4,0.4-9.6,0.5c-1.6,0.1-3.2,0.1-4.8,0.2c-6.9,0.2-13.6-4.4-19-8.3
		c-4.6-3.3-9.1-8.5-15.4-7.9c-7.2,0.7-27.9,12.4-25.4,16.7c-0.8-0.4-4.3,2.8-4.7,3.3c-1.2,1.5-1.5,3.5,0.2,4.7
		c0.3,1.6,1.1,1.6,3.4,1.5c0.5,0,3.2-0.7,3.6-0.9c-0.8,0.5-1.7,1.1-2.4,1.7c-1.5,1.2-0.9,5.7,12.9,1.2c4-1.3,7.9-2.9,12-1.9
		c0.1,0.1,0.2,0.2,0.4,0.3c6.3,3.3,12.6,7.2,20,6.8c7.6-0.4,14.7-4,22.4-3c0.4,0.1,0.7-0.1,0.9-0.4c11.4,0.4,22.8,0.1,34.2-0.7
		C357.8,297.4,357.9,295.5,356.8,295.4z"/>
	<path class="st9" d="M370.4,158.1c0.1-0.1,0.1-0.3,0.1-0.4c0.1-1.1-2.2-2.3-3-2.7c-1.8-0.9-3.8-1.4-5.8-1.7s-7.7-1.3-9.3,0.6
		c-0.5,0.6-0.5,1.4,0,1.9c0,0.1,0.1,0.1,0.1,0.2c2,1.5,5.4,1.3,7.8,1.6C362.1,157.7,370.4,158.1,370.4,158.1z"/>
	<path class="st0" d="M387.4,116.2c-0.5-0.8-1.7-1.2-2.5-1.7c-1.3-0.8-2.6-1.6-3.9-2.3c-2.5-1.5-4.8-3.2-7.4-4.5
		c-6.8-3.4-5.1,6-1.1,8.5c2.1,1.3,4.9,2.2,7.3,2.5c2.2,0.3,4.6,0.4,6.6-0.5C387.4,117.8,388.1,117.2,387.4,116.2z"/>
	<path class="st0" d="M352.3,106.3c-0.4-0.2-1-0.3-1.8-0.2c-3.9,0.5-15.2,2.5-16.7,6.9c-0.4,1.3,1.3,2.1,2.3,2.6
		c2.3,1,5,1.2,7.5,0.6c2.7-0.6,5.5-2.2,7.5-4.1C352.6,110.7,354.1,107.2,352.3,106.3z"/>
	<path class="st0" d="M382.4,126.6c-3.7,1.6-8.1,2.5-11.3-0.4c-1-0.9-2.4,0.6-1.5,1.5c4,3.6,9.2,2.7,13.8,0.7
		C384.7,127.8,383.6,126.1,382.4,126.6z"/>
	<path class="st0" d="M348.8,125.8c-2.9,1.3-7.8,3-10.6,0.7c-1-0.8-2.5,0.6-1.5,1.5c3.7,3,9.2,1.4,13.1-0.4
		C351.1,127,350,125.2,348.8,125.8z"/>
	<path class="st8" d="M404.8,124.1c-1.9,0.1-3.5,0.9-4.6,2.4c-0.3,0.4,0.3,0.7,0.6,0.3c1-1.3,2.4-2,4-2.1
		C405.3,124.8,405.3,124.1,404.8,124.1z"/>
	<path class="st8" d="M361.1,87.4c-2.5,3.9-7,5.2-11.1,6.6c-3.5,1.2-6.7,2.9-9.2,5.7c-2.3,2.6-4,5.8-5.4,9.1
		c-1.8,4.1-3.2,8.3-4.7,12.5c-0.1,0.4,0.5,0.6,0.7,0.2c1.5-4.3,3-8.7,4.8-12.9c1.5-3.5,3.4-6.9,6.1-9.5c5.5-5.3,15-4.5,19.3-11.3
		C362,87.4,361.4,87,361.1,87.4z"/>
	<path class="st8" d="M355.5,86.7c-3.3,0.7-6.5,1.8-9.6,3.3c-1.5,0.7-3,1.5-4.4,2.4c-0.8,0.5-1.5,1-2.2,1.5s-1.7,1.5-2.7,1.6
		c3.6-4.8,7.3-11.3,13.5-12.9c0.4-0.1,0.2-0.8-0.2-0.7c-6.5,1.7-10.3,8.5-14.1,13.5c-0.3,0.1-0.3,0.5,0,0.7c1.3,0.5,2.3-0.6,3.3-1.3
		c1.6-1.2,3.3-2.2,5-3.1c3.6-2,7.5-3.4,11.6-4.3C356.1,87.3,355.9,86.6,355.5,86.7z"/>
	<path class="st8" d="M355,73.8c-5.1,1.4-10.3,2.8-14.7,5.8c-4.7,3.2-7.6,8.4-10.7,13c-0.2,0.4,0.3,0.7,0.6,0.3
		c3.2-4.7,6.1-9.9,10.9-13.1c4.3-2.8,9.3-4.1,14.1-5.4C355.6,74.3,355.4,73.7,355,73.8z"/>
	<path class="st8" d="M344.3,74.9c-3.8,1.4-7.5,3.2-10.8,5.6c-3.2,2.3-5.1,6-7.2,9.2c-0.2,0.4,0.4,0.7,0.6,0.3
		c2.2-3.3,4.1-7,7.4-9.3c3.1-2.2,6.5-3.9,10.1-5.2C344.9,75.5,344.8,74.8,344.3,74.9z"/>
	<path class="st5" d="M474.6,179.7c-0.4-6.7-2.5-32.4-18.3-40c-9.4-4.5-10.4,2.1-15.3,2.9c-9.8,1.6-13.9,11.5-16.6,20
		c-3.1,9.7-3,19.5-0.4,29.3c2.5,9.4,5.7,18,8.1,27.5c1.2,4.8-1.3,24.7-2.8,29.6c-1.5,4.9-1.2,10.1-0.8,15.3c0.2,2.8,0,5-3,5.9
		c-4.2,1.4-24.4,0.9-41.7,5.6c-11.2,3.1-23.1,1.8-34.6,2.8c-8.7,0.8-17.3,2-25.8,3.7c-1.2,0.2-1.7,1.7-0.9,2.6
		c6.4,7.1,18.4,24.4,22.8,24.4c23-0.2,54.4-3.2,77.3-5.4c9.5-0.9,20.2-0.9,29.1-4.6c8.2-3.4,12.7-10.4,15-18.7
		c2.7-9.7,3.7-20.1,4.9-30.1c1.4-11.4,2.3-22.9,2.8-34.3C475,204,475.3,191.8,474.6,179.7z"/>
	<path class="st8" d="M278.5,274c-6.2,0.5-11.7,3.2-17.2,6c0,0,0,0-0.1,0c-0.2,0.1-0.3,0.2-0.5,0.3h-0.1c-1.5,0.8-3,1.6-4.5,2.5
		c-0.4,0.2,0,0.8,0.3,0.6c1.5-0.9,3-1.7,4.6-2.6c5.5-2.8,11.1-5.6,17.4-6.2C279,274.6,279,274,278.5,274z"/>
	<path class="st8" d="M279.5,278.3c-9.6,1.7-18.2,6.5-26.6,11.3c-0.4,0.2,0,0.8,0.3,0.6c8.4-4.7,16.9-9.5,26.5-11.2
		C280.1,278.9,279.9,278.2,279.5,278.3z"/>
	<path class="st8" d="M280.8,284.7c-8,1.7-15.7,4.8-22.8,8.9c-0.4,0.2,0,0.8,0.3,0.6c7-4.2,14.7-7.1,22.7-8.9
		C281.4,285.2,281.3,284.6,280.8,284.7z"/>
</g>
<g>
	<g>
		<path class="st2" d="M426.9,36.2c-3.8,0.9-7.8-1-10.3-3.9c-1.1-1.3-2-3-2.1-4.7c0-1.9,1-3.5,2.5-4.6c2.9-2.2,7.1-2.4,10,0
			c3,2.6,2.9,6.7,0.9,9.9c-2.2,3.5-6.1,5.3-9.9,6.5c-2.7,0.9-6.9,2.2-9.3,0.1c-2.9-2.5-0.1-7.2,1.9-9.3c2.9-3,6.8-4.6,10.8-5.2
			c3.9-0.7,8.5-0.8,12.4,0.2c3.5,0.9,6,3.4,5.5,7.2c-0.9,7.8-11.4,10-17.7,8.1c-3.8-1.2-5.9-4.5-6.5-8.3c-0.3-1.7-0.2-3.6,0.9-5
			c1-1.2,2.5-2,3.9-2.4c3.9-1.2,8.2-0.8,12.1,0.1c3.4,0.8,8,2.3,6.7,6.7c-1.1,3.8-5.9,5.8-9.3,7c-4,1.4-8.2,1.9-12.4,1.5
			c-3.8-0.3-8.1-1.3-11.2-3.7c-3.2-2.5-3.9-6.7-2.6-10.4c1.3-3.8,4.4-6.8,7.7-9c3.4-2.3,7.4-3.9,11.4-4.5c3.5-0.5,7.6,0.1,9.4,3.5
			c1.5,2.8,1.2,6.4-0.4,9c-4.1,7-14.2,9.2-21.6,8.9c-1.8-0.1-3.9-0.2-5.4-1.4c-1.3-1.1-1.7-3.1-1.3-4.8c0.8-3.6,4.1-6.5,7.2-8.2
			c3.3-1.8,7-2.5,10.7-2.2c3.3,0.3,7.1,1.7,8.8,4.7c1.7,3-0.6,5.6-3.2,6.9c-2.8,1.4-6.7,2.1-9.8,1.3c-3.2-0.8-4.5-3.9-3.1-6.9
			c1.6-3.2,5.6-3.7,8.8-2.7c3.7,1.2,6.2,4.6,7.8,7.9c1.4,2.8,2.8,7.6-1.6,8.5c-2,0.4-4.2-0.4-6.1-1.1c-1.5-0.6-3.3-1.3-4.4-2.6
			s-0.8-3.1,0.3-4.4c1.2-1.5,3.2-2.2,5.1-2.6c4.4-1,9.3-0.7,13.5,0.9c0.7,0.3,1.5,0.6,1.7,1.3c0.3,0.8-0.1,1.7-0.7,2.3
			c-1.2,1.5-3.3,2.3-5.1,2.8c-4,1.3-8.3,1.2-12.3-0.1c0.5,0.6,0.9,1.2,1.4,1.8c-0.1-1.3,1.6-2,2.5-2.6c1.4-0.9,2.9-1.7,4.4-2.4
			c1.6-0.8,3.2-1.4,4.8-2c0.6-0.2,1.2-0.5,1.9-0.6c0.3-0.1,0.5-0.1,0.8-0.1s0.3,0.2,0.2,0c-0.1-0.3-0.3,0.4-0.3,0.5
			c-0.1,0.4-0.2,0.7-0.3,1c-0.2,0.6-0.5,1.2-0.8,1.7c-0.6,1.2-1.4,2.2-2.2,3.2c-1.9,2-4.2,3.6-6.8,4.4c0.6,1,1.2,2.1,1.8,3.1
			c0.6-0.8,1.4-1.5,2.3-2.1c1-0.6,2-0.6,3-0.9c0.3-0.1,0.8,0.2,0.2-0.3c-0.5-0.5-0.2-0.2-0.4,0.2c-0.2,0.4-0.3,0.8-0.5,1.2
			c-0.5,0.9-1,1.9-1.7,2.7c-2.7,3.3-6.5,5.5-10.7,6.2c-1,0.2-1.6,1.4-1.3,2.3c0.3,1.1,1.3,1.5,2.3,1.3c6-1,11.5-4.9,14.4-10.3
			c0.7-1.3,1.4-2.7,1.3-4.1c-0.1-1.7-1.5-2.8-3.2-2.9c-3.2-0.1-6.5,1.6-8.4,4.1c-1,1.3-0.2,3.8,1.8,3.1c3.7-1.2,7-3.4,9.4-6.5
			c1.3-1.6,2.3-3.4,3-5.3c0.7-1.9,1.2-4.1-0.5-5.6c-1.4-1.2-3.4-1-5.1-0.5c-2.3,0.7-4.6,1.7-6.8,2.8c-2,1-4,2-5.9,3.3
			c-1.7,1.2-3.3,2.8-3,5c0.1,0.9,0.5,1.5,1.4,1.8c5.4,1.8,11.3,1.5,16.5-0.8c2.3-1,4.6-2.4,5.7-4.7c1.1-2.5,0.6-5.4-1.7-7
			c-2.2-1.6-5.4-2.1-8-2.5c-3-0.4-6-0.3-8.9,0.3c-4.9,0.9-10.5,4.3-9.5,10.1c0.4,2.4,2.2,4.2,4.3,5.3c2.3,1.3,5,2.3,7.6,2.7
			s5.4,0,7.4-1.8c1.9-1.7,2.5-4.2,2.2-6.6c-0.6-4.8-3.7-9.9-7.5-12.8c-3.9-3-9.5-4.2-14-1.6c-3.9,2.3-5.8,7.5-3.8,11.6
			c2.2,4.7,8,5.2,12.5,4.5c4-0.6,8.7-2.4,10.6-6.3c2.3-4.7-0.6-9.5-4.7-11.9c-8.4-5-20.5-1.8-26.4,5.6c-3.1,3.9-4.5,10.1-0.2,13.8
			c2,1.7,4.5,2.2,7,2.4c3,0.2,6-0.1,9-0.6c9.3-1.8,20.2-8.3,18.4-19.2c-0.8-4.9-4.5-8.3-9.3-9c-5.2-0.8-10.8,1-15.4,3.5
			s-9,6.2-11.2,11c-2.1,4.7-2,10.4,1.5,14.5c3.5,4,9.3,5.5,14.3,6.1c5.3,0.6,10.9-0.1,15.9-2.1c4.8-1.9,10.2-5.1,10.7-10.9
			c0.5-5.9-5-8.4-9.9-9.5c-5.1-1.1-10.9-1.5-15.7,0.7c-1.9,0.9-3.7,2.2-4.7,4.1c-1.3,2.4-1.2,5.1-0.8,7.7c1,5.2,4.4,9.4,9.6,10.7
			c4.8,1.2,10.5,0.6,14.9-1.7c4.3-2.3,7.4-6.8,7-11.7c-0.4-5.2-4.3-8.5-9.2-9.5c-9.9-1.9-23.2,0-28.5,9.6
			c-2.3,4.2-2.3,10.3,2.6,12.5c4.5,2,10,0.2,14.2-1.6c4.8-2,9.1-5.5,10.5-10.7c1.3-5-1-10.3-5.8-12.5c-4.7-2.2-10.6-0.9-14,3
			c-3.7,4.1-2.5,9.7,1,13.5c3.4,3.8,8.8,5.9,13.8,4.7C430.3,39.3,429.3,35.6,426.9,36.2L426.9,36.2z"/>
	</g>
</g>
<g>
	<g>
		<path class="st2" d="M264.5,119.8c5.1-0.1,9.8-3.6,12.1-8.1c2.3-4.6,2-10.2-2.6-13.3c-4.4-2.9-10.7-2.5-14.6,1.1
			c-3.8,3.5-4.5,9.1-1.8,13.5c2.8,4.7,8,6.8,13.2,7.5c4.4,0.6,9.9,0.8,13.6-2.1c4.3-3.4,2.9-9.2-0.4-12.7c-3.6-3.8-9.1-5.6-14.3-5.7
			c-5.4-0.1-11.4,1.3-16.2,3.8c-4.4,2.3-7.1,6.5-6.1,11.4c2.3,11,16.9,11.9,25,7.1c4.7-2.9,6.7-8.1,6.1-13.4
			c-0.3-2.6-1.1-5.1-3.2-6.9c-1.7-1.5-3.9-2.2-6.2-2.4c-5.1-0.5-10.5,1.4-14.8,3.8c-2.2,1.2-4.5,2.7-5.9,4.9
			c-1.4,2.2-1.5,4.9-0.4,7.2c2.3,5.1,8.4,6.6,13.5,7.1c5.3,0.5,10.8-0.3,15.8-2.3c4.5-1.9,9.6-4.8,11.8-9.4c2.4-5,0.9-10.6-2.6-14.6
			s-8.9-6.4-14-7.5s-11-1.2-15.9,1.1c-4.6,2.2-6.7,7-5.9,11.9c0.8,4.8,4.3,8.6,8.6,10.6c4.8,2.2,10.4,2.6,15.6,2
			c4.8-0.6,11.7-1.8,13.9-6.7c2.4-5.2-1.3-10.4-5.7-13.1c-4.4-2.7-9.7-3.6-14.8-2.8c-5,0.7-10,3.2-12.7,7.5c-2.6,4.1-1.9,9.3,2.4,12
			c6.4,4,21.7,1.9,20.9-7.9c-0.4-4.8-4.5-8.5-9.3-8.6c-5.2-0.1-9.7,3.4-12,7.8c-1.2,2.3-1.9,4.8-2.3,7.3c-0.3,2.3-0.5,4.7,0.4,6.8
			c0.9,2.3,2.9,4,5.4,4.4c2.7,0.4,5.3-0.5,7.6-1.9c3.9-2.4,9-6.4,7-11.7c-2.2-5.6-8.8-6-13.8-5.2c-2.7,0.4-5.3,1.3-7.8,2.5
			c-2.2,1.1-5.1,2.5-6.3,4.8s-0.4,5.1,1.4,6.7c2,1.9,4.9,2.4,7.5,2.7c5.2,0.5,10.5-0.9,14.9-3.7c0.8-0.5,1-1.2,0.9-2.1
			c-0.3-2-2.2-3.2-3.9-3.9c-2.1-0.8-4.4-1.3-6.6-1.7c-2.3-0.4-4.7-0.8-7-0.9c-1.8-0.1-3.9,0.1-5,1.6c-2.6,3.3,2.5,8,4.9,9.9
			c3.2,2.4,7,3.8,11,4c2,0.1,2.3-2.5,0.9-3.5c-2.5-1.9-6.1-2.7-9.2-1.8c-1.5,0.5-2.6,1.8-2.3,3.5c0.2,1.5,1.4,2.8,2.5,3.9
			c4.2,4.3,10.5,6.6,16.5,6c1-0.1,1.9-0.8,1.9-1.9c0-0.9-0.9-2-1.9-1.9c-4.2,0.4-8.2-0.6-11.7-3c-0.8-0.6-1.5-1.2-2.2-1.9
			c-0.3-0.4-0.7-0.7-1-1.1c-0.1-0.1-0.4-0.7-0.5-0.7c-0.1,0.2-0.3,0.4-0.4,0.7c0.1,0,0.2-0.1,0.3-0.1c1,0.1,1.9-0.2,2.9,0
			c1.2,0.3,2.2,0.8,3.1,1.5c0.3-1.2,0.6-2.3,0.9-3.5c-2.7-0.1-5.3-1-7.5-2.4c-1.1-0.7-2.2-1.6-3.1-2.5c-0.5-0.5-1-1.1-1.4-1.7
			c-0.2-0.3-0.3-0.5-0.5-0.8c-0.1-0.1-0.4-0.8-0.5-0.4c0.1-0.5,2.9-0.1,3.3-0.1c1.7,0.2,3.4,0.4,5.1,0.7c1.7,0.3,3.4,0.8,5,1.2
			c0.9,0.3,2.5,0.6,2.6,1.7c0.3-0.7,0.6-1.4,0.9-2.1c-3.5,2.3-7.5,3.5-11.7,3.3c-1.9-0.1-4.3-0.3-5.9-1.4c-0.6-0.4-1.1-1.1-1.2-1.8
			c-0.1-0.8,0.6-1.4,1.2-1.8c3.3-2.5,7.6-4.1,11.7-4.4c2-0.2,4.3-0.3,6.2,0.7c1.3,0.7,2.5,2.1,2.3,3.6c-0.2,1.7-1.8,3-3.1,4
			c-1.6,1.2-3.3,2.5-5.2,3.1c-1.6,0.4-3.5,0.2-4.5-1.3c-0.8-1.4-0.8-3.2-0.6-4.8c0.4-3.7,1.8-7.7,4.6-10.3c2.4-2.2,6.5-3.4,9.3-1.4
			c2.5,1.8,3.3,5.4,0.9,7.5s-6.3,2.5-9.4,2.3c-2.7-0.2-6.2-1.3-6.6-4.4c-0.5-3.7,3.3-6.6,6.2-8c3.4-1.6,7.5-2.1,11.2-1.4
			c3.5,0.7,7.6,2.4,9.6,5.5c5.9,9.1-12.3,10.2-17.2,9.8c-3.6-0.3-7.4-1.5-10.1-4c-2.4-2.2-3.8-5.8-3-9.1c0.9-3.7,4.6-5.2,8.1-5.7
			c4.3-0.6,8.7,0.1,12.7,1.5c3.7,1.3,7.5,3.5,9.7,7c2.1,3.4,2.1,7.6-0.5,10.7c-2.5,2.9-6.3,4.9-9.9,6.2c-3.9,1.4-8.1,1.9-12.2,1.6
			c-3.6-0.3-8.7-1-10.7-4.5c-2.3-4,2.1-6.6,5.1-8.2c3.4-1.8,7.4-3.2,11.3-3.1c1.5,0,3.2,0.4,4.4,1.3c1.5,1.1,2,2.9,2.2,4.7
			c0.5,4-0.9,7.8-4.4,9.9c-3.3,1.9-7.7,2.7-11.4,2c-3.5-0.6-6.7-2.7-7.7-6.3c-1-3.5,1-6.2,4-7.8c3.7-2,8.3-3.1,12.4-3.3
			c4.1-0.3,8.2,0.4,11.7,2.8c2.4,1.6,5.8,5.6,3.2,8.5c-2.1,2.3-6.3,2.1-9.1,1.9c-4-0.2-8.3-1.2-11.2-4.2c-2.6-2.7-3.3-6.6-1-9.6
			c2.4-3.1,6.9-3.8,10.3-1.9c3.5,1.9,3.4,5.9,1.7,9.1c-1.7,3.1-5,5.7-8.6,5.8C262,116.1,262,119.8,264.5,119.8L264.5,119.8z"/>
	</g>
</g>
</svg>
